<?xml version="1.0" standalone="no"?>
<!DOCTYPE svg PUBLIC "-//W3C//DTD SVG 20010904//EN"
 "http://www.w3.org/TR/2001/REC-SVG-20010904/DTD/svg10.dtd">
<svg version="1.0" xmlns="http://www.w3.org/2000/svg"
 width="960.000000pt" height="604.000000pt" viewBox="0 0 960.000000 604.000000"
 preserveAspectRatio="xMidYMid meet">

<g transform="translate(0.000000,604.000000) scale(0.100000,-0.100000)"
fill="#000000" stroke="none">
<path d="M0 3020 l0 -3020 4800 0 4800 0 0 3020 0 3020 -4800 0 -4800 0 0
-3020z m4740 1577 c1562 -313 2512 -508 3620 -743 168 -35 341 -72 385 -81 44
-9 84 -19 88 -23 5 -4 3 -27 -4 -51 -10 -33 -11 -43 -1 -47 7 -2 12 -7 12 -11
0 -4 -24 -2 -52 4 -29 7 -98 20 -153 30 -55 9 -154 27 -220 40 -66 13 -143 26
-172 29 -28 3 -91 14 -140 25 -48 11 -180 36 -293 56 -113 20 -279 50 -370 66
-91 17 -241 43 -335 59 -93 16 -312 54 -485 85 -446 78 -1796 306 -1851 312
-49 6 -53 4 -63 -39 -6 -26 -4 -28 26 -28 33 0 72 -6 543 -81 143 -23 275 -44
293 -46 27 -4 32 -2 32 15 0 12 5 24 12 28 8 5 9 -2 5 -22 l-6 -30 87 -13
c234 -34 361 -54 517 -81 94 -17 235 -39 315 -51 80 -11 179 -27 220 -35 95
-18 110 -18 110 1 0 8 5 15 11 15 6 0 8 -9 4 -20 -3 -11 -2 -20 2 -20 28 0
1012 -162 1423 -235 74 -13 180 -31 235 -40 257 -42 295 -52 267 -69 -5 -3
-58 3 -118 14 -60 10 -167 28 -239 39 -71 12 -281 45 -465 75 -492 80 -754
121 -1045 166 -143 22 -357 56 -475 75 -118 19 -321 51 -450 70 -129 20 -275
43 -325 51 -49 8 -155 23 -235 35 -80 11 -282 43 -450 70 -424 69 -447 73
-790 124 -168 25 -372 57 -455 71 -82 14 -163 28 -180 30 -16 3 -54 9 -84 14
-108 19 -129 15 -323 -69 -101 -43 -262 -111 -358 -151 -96 -39 -231 -97 -300
-127 -69 -31 -188 -81 -265 -113 -77 -32 -192 -81 -255 -108 -298 -129 -420
-181 -610 -259 -456 -189 -714 -292 -722 -287 -17 11 -6 25 32 40 22 9 40 18
40 19 0 2 -3 10 -6 19 -5 14 -9 14 -36 0 -39 -20 -49 -10 -51 50 l-2 47 620
315 c1104 561 1948 987 2015 1016 59 26 73 28 155 24 64 -3 444 -75 1315 -249z
m-1225 -217 c312 -48 545 -82 745 -110 178 -26 398 -68 388 -75 -2 -1 -64 1
-138 4 -74 3 -136 3 -138 -1 -2 -5 -11 -8 -20 -9 -10 -1 -6 -4 8 -8 l24 -7
-29 -11 c-17 -6 -52 -17 -80 -24 -48 -13 -49 -14 -20 -20 17 -4 22 -7 12 -8
-31 -2 -81 -32 -68 -41 8 -4 -17 -16 -61 -30 -103 -33 -118 -44 -108 -79 7
-25 4 -30 -16 -40 -13 -6 -24 -17 -24 -24 0 -10 29 -6 123 20 67 18 132 35
145 38 25 4 30 -10 7 -19 -10 -3 -14 -14 -12 -28 2 -13 2 -17 0 -10 -3 6 -9
12 -15 12 -6 0 -6 6 2 15 10 12 10 15 -3 15 -9 0 -19 -5 -22 -10 -4 -6 -10 -8
-15 -5 -5 3 -13 -2 -18 -11 -5 -9 -12 -15 -15 -15 -4 1 -7 -1 -7 -4 0 -3 2 -5
5 -5 3 0 12 0 20 0 9 0 12 6 9 18 -5 14 -4 15 5 2 6 -8 11 -11 11 -6 0 5 7 3
15 -4 8 -7 15 -18 15 -24 0 -6 -5 -3 -11 6 -9 17 -12 17 -35 2 -19 -13 -22
-20 -13 -30 6 -8 15 -11 20 -8 8 5 1 -85 -7 -95 -2 -2 -4 17 -4 43 0 45 -1 47
-22 40 -20 -6 -21 -5 -10 8 21 25 -9 43 -49 29 -38 -13 -52 -14 -45 -3 3 5 -1
9 -9 9 -9 0 -11 -4 -6 -11 6 -7 2 -20 -9 -34 -10 -12 -21 -18 -24 -13 -3 5 1
11 9 15 19 7 19 23 0 23 -8 0 -11 -5 -8 -10 4 -6 0 -8 -10 -4 -14 5 -17 0 -16
-31 0 -30 2 -33 9 -17 7 16 9 17 9 3 1 -9 -3 -20 -9 -23 -20 -12 -9 -25 15
-19 15 4 25 2 25 -5 0 -6 -13 -11 -30 -11 -16 0 -30 -5 -30 -10 0 -6 11 -8 25
-4 16 4 25 2 25 -6 0 -6 5 -8 10 -5 6 3 10 15 10 25 0 10 5 22 12 26 8 5 9 2
5 -10 -6 -14 -3 -17 9 -12 8 3 20 6 25 6 5 0 9 6 9 14 0 16 18 31 26 23 9 -9
-19 -57 -37 -62 -11 -4 -16 -12 -13 -23 5 -16 4 -16 -9 0 -8 10 -17 15 -20 12
-3 -4 -21 -9 -39 -13 -24 -5 -33 -12 -33 -26 1 -23 -3 -23 93 0 39 9 72 21 72
27 0 15 58 35 159 54 67 13 96 15 98 7 3 -8 14 -8 36 -2 18 5 43 9 56 9 23 0
24 -1 6 -13 -12 -9 -14 -16 -7 -21 7 -4 6 -15 -4 -34 -7 -15 -14 -32 -14 -38
0 -6 -7 -17 -15 -24 -8 -7 -15 -21 -15 -32 0 -10 -6 -21 -14 -24 -8 -3 -12
-12 -9 -20 3 -9 -2 -14 -13 -15 -11 0 -14 -3 -7 -5 12 -5 -19 -44 -35 -44 -10
0 -42 38 -42 50 0 6 -7 10 -15 10 -18 0 -20 -16 -2 -24 6 -4 1 -4 -12 -2 -13
3 -34 -2 -48 -11 -13 -9 -38 -16 -55 -15 -17 0 -47 -8 -67 -19 -19 -10 -47
-19 -61 -20 -20 -1 -18 -4 15 -14 l40 -13 -33 -1 c-34 -1 -37 -21 -3 -21 10 0
18 -7 18 -15 0 -10 -16 -17 -51 -21 -28 -4 -53 -6 -55 -5 -2 2 -7 -3 -12 -10
-4 -8 -18 -14 -31 -14 -20 0 -23 -6 -26 -42 -3 -35 -7 -43 -23 -43 -11 0 -22
7 -25 15 -4 8 -13 15 -21 15 -11 0 -14 7 -10 23 3 12 1 31 -3 42 -5 12 -9 -37
-9 -123 -1 -79 3 -141 7 -138 10 6 326 46 365 46 47 0 57 -19 56 -107 -1 -90
-5 -87 -14 10 l-7 68 -56 -3 -57 -3 0 -75 0 -75 58 3 c47 3 56 1 51 -11 -4
-10 -32 -16 -107 -22 -56 -4 -124 -11 -152 -16 -45 -7 -43 -7 20 -4 39 3 127
8 198 11 l127 7 0 -31 c0 -18 -4 -32 -9 -32 -4 0 -9 -76 -9 -170 -1 -98 3
-170 8 -170 5 0 6 8 3 17 -5 12 -2 15 9 10 13 -5 17 10 21 101 4 59 6 119 7
134 0 15 4 37 9 50 9 21 10 20 11 -12 1 -19 3 -42 4 -50 2 -8 4 -78 6 -155 2
-77 5 -128 7 -112 5 32 19 35 28 7 8 -25 25 -26 25 -2 1 16 1 16 11 -1 6 -10
9 -34 7 -53 -3 -30 0 -37 29 -57 18 -12 33 -25 33 -29 0 -5 -26 -9 -57 -9 -32
-1 -66 -2 -76 -3 -15 -1 -18 -15 -22 -100 -5 -100 -15 -145 -15 -68 0 23 -3
41 -7 41 -5 -1 -10 0 -13 1 -19 8 -71 7 -76 -2 -9 -15 -24 12 -24 45 0 15 -5
27 -11 27 -9 0 -10 -39 -7 -139 l5 -139 -29 -6 c-16 -3 -38 -1 -48 4 -13 7
-20 6 -23 -3 -5 -14 -39 2 -43 21 -1 7 0 8 3 2 2 -5 12 -10 21 -10 13 0 14 2
4 9 -11 6 -11 23 -3 85 6 43 11 79 11 82 0 2 7 4 15 4 8 0 15 5 15 11 0 6 -7
9 -15 5 -10 -4 -15 1 -16 17 l-2 22 -4 -22 c-2 -13 -9 -23 -14 -23 -9 0 -13
54 -9 113 1 19 -3 27 -14 27 -9 0 -16 -8 -16 -20 0 -10 -6 -25 -14 -32 -9 -9
-12 -26 -8 -51 4 -34 3 -39 -14 -35 -16 3 -19 12 -19 56 0 28 -2 52 -5 52 -3
0 -16 -7 -28 -16 -25 -17 -28 -39 -9 -59 9 -9 12 -33 10 -76 -4 -62 8 -79 12
-18 2 17 7 35 13 41 22 22 32 -5 32 -92 l0 -90 -61 1 c-57 1 -60 2 -54 23 17
56 24 94 24 121 -1 17 -7 0 -14 -38 -8 -37 -28 -91 -44 -120 -30 -50 -31 -51
-32 -22 -3 63 3 140 13 159 6 10 8 37 5 60 -3 22 -4 36 -1 30 3 -7 14 -10 25
-7 13 4 18 1 14 -8 -4 -10 4 -15 25 -16 18 -1 28 2 25 8 -4 5 -10 7 -15 4 -13
-8 -20 22 -20 86 0 46 -3 59 -15 59 -15 0 -20 -27 -18 -90 1 -14 -1 -19 -4
-11 -5 11 -7 11 -14 0 -6 -9 -8 46 -6 141 3 85 3 130 1 100 -7 -104 -15 -160
-25 -160 -5 0 -10 8 -10 18 -1 16 -2 16 -6 0 -2 -10 -9 -18 -14 -18 -5 0 -9
-14 -9 -31 0 -28 2 -31 25 -25 24 6 25 4 25 -40 0 -37 -4 -47 -20 -51 -14 -4
-20 -13 -19 -32 0 -14 3 -20 6 -13 7 18 23 15 23 -5 0 -9 -14 -32 -32 -50 -18
-18 -27 -33 -20 -33 6 0 17 9 24 20 18 28 30 25 26 -7 -3 -30 -4 -30 -100 -32
-35 -1 -38 -4 -38 -28 0 -21 3 -24 9 -13 6 8 8 17 6 20 -2 4 3 7 11 7 11 0 14
-7 10 -21 -3 -12 -6 -27 -6 -33 0 -8 -17 -14 -47 -15 -37 -1 -40 -2 -15 -5 20
-3 32 -10 32 -20 0 -11 6 -14 22 -10 11 3 33 0 48 -8 21 -11 62 -13 171 -11
135 3 145 2 160 -17 14 -17 27 -20 81 -19 36 1 75 5 89 10 32 11 252 -7 261
-22 8 -12 530 -16 559 -4 21 8 14 62 -8 54 -7 -3 -51 -8 -96 -10 -75 -5 -78
-5 -27 4 30 5 70 12 88 15 l32 6 0 144 0 145 44 0 c38 0 44 -3 48 -24 5 -23 2
-24 -29 -19 -28 5 -33 3 -33 -14 0 -18 10 -19 163 -22 89 -1 167 -7 173 -12 6
-5 132 -6 290 -3 183 3 339 1 454 -8 185 -14 486 -16 533 -5 20 6 27 13 27 32
0 23 -2 24 -47 20 -32 -3 -38 -2 -19 3 27 6 30 11 31 50 1 23 3 46 3 52 2 8
142 15 222 9 53 -3 74 -3 215 3 72 2 191 2 265 -2 130 -6 365 1 375 12 3 3 3
12 0 20 -4 10 -16 13 -38 11 -18 -3 -27 -1 -21 4 7 4 14 19 15 33 4 22 10 26
59 32 30 4 183 7 340 6 301 0 360 4 360 29 0 10 -7 14 -20 10 -13 -3 -20 0
-20 9 0 12 32 14 183 13 186 -1 199 -2 112 -14 -41 -6 -46 -9 -29 -15 38 -15
35 -27 -9 -35 -33 -5 -38 -9 -22 -14 19 -8 19 -8 -3 -20 -12 -6 -22 -9 -22 -6
0 3 -17 -3 -37 -14 -21 -10 -42 -19 -48 -20 -5 -1 -10 -7 -10 -13 0 -8 -23
-17 -53 -23 -29 -6 -51 -13 -48 -16 3 -3 -13 -6 -36 -8 -22 -1 -54 -9 -69 -16
-15 -8 -41 -15 -57 -15 -16 0 -35 -6 -41 -14 -6 -7 -28 -16 -47 -19 -34 -6
-100 -29 -181 -63 -17 -8 -36 -14 -42 -14 -6 0 -11 -7 -11 -16 0 -8 -5 -12
-10 -9 -12 7 -119 -22 -137 -37 -7 -6 -13 -7 -13 -3 0 4 -6 3 -12 -3 -7 -5
-33 -13 -58 -17 -43 -6 -69 -13 -142 -35 -18 -5 -60 -12 -93 -14 -80 -7 -388
-78 -409 -95 -6 -5 -24 -9 -39 -9 -16 0 -34 -8 -43 -18 -8 -11 -14 -14 -13 -9
3 22 -2 27 -14 17 -7 -7 -38 -14 -68 -18 -30 -4 -55 -10 -57 -15 -6 -16 -32
-9 -33 9 -1 16 -2 16 -6 0 -3 -11 -14 -18 -28 -18 -19 0 -23 4 -19 18 4 12 -1
10 -16 -7 -18 -21 -23 -22 -31 -10 -6 10 -9 11 -9 1 0 -7 -4 -10 -10 -7 -5 3
-10 1 -10 -6 0 -10 -3 -10 -12 -1 -17 17 -27 15 -21 -6 3 -15 -3 -18 -34 -20
-20 -2 -45 -10 -54 -18 -12 -10 -19 -12 -24 -4 -3 5 -11 8 -16 4 -5 -3 -7 -9
-4 -14 3 -4 -2 -10 -10 -14 -10 -4 -15 1 -16 17 0 22 0 22 -9 1 -9 -22 -39
-29 -164 -39 -27 -2 -53 -10 -58 -17 -8 -10 -11 -10 -15 0 -7 17 -24 15 -17
-2 4 -10 -6 -14 -41 -14 -25 -1 -50 -4 -55 -7 -6 -3 -18 -8 -27 -10 -10 -2
-30 -6 -46 -10 -23 -6 -26 -5 -21 10 6 14 4 16 -12 8 -10 -6 -25 -8 -31 -6 -7
3 -13 0 -13 -6 0 -6 -6 -8 -14 -5 -8 3 -16 -2 -19 -13 -4 -16 -6 -15 -12 4 -4
13 -12 20 -17 17 -5 -3 -7 -12 -4 -20 3 -7 1 -16 -4 -19 -6 -4 -10 -2 -10 3 0
11 -128 9 -154 -3 -15 -7 -18 -5 -12 6 4 8 0 5 -8 -5 -9 -11 -16 -16 -16 -10
0 5 -7 1 -14 -9 -12 -16 -14 -16 -20 -2 -3 10 -11 13 -18 9 -7 -5 -21 -9 -30
-11 -10 -2 -27 -4 -37 -6 -11 -2 -25 -8 -33 -13 -7 -5 -32 -9 -55 -9 -24 0
-43 -2 -43 -5 0 -9 -43 -6 -57 3 -9 5 -13 2 -13 -9 0 -13 -3 -14 -15 -4 -8 7
-22 9 -31 6 -9 -4 -22 -2 -28 3 -7 6 -17 6 -26 0 -13 -8 -13 -10 0 -18 8 -6
11 -13 7 -18 -5 -4 -12 -1 -16 6 -6 8 -19 12 -35 9 -15 -3 -28 -2 -31 1 -2 4
-19 5 -39 3 -25 -3 -33 -8 -29 -18 3 -8 0 -14 -6 -14 -6 0 -11 7 -11 15 0 9
-9 15 -25 15 -19 0 -25 -6 -26 -22 l-2 -23 -4 23 c-3 16 -8 20 -16 14 -7 -5
-24 -12 -39 -16 -25 -6 -28 -4 -29 21 l-2 28 -4 -27 c-4 -24 -9 -26 -54 -30
-28 -1 -56 0 -64 5 -18 10 -45 -2 -45 -19 0 -8 -4 -14 -10 -14 -5 0 -10 7 -10
15 0 8 -7 15 -15 15 -9 0 -12 -6 -9 -15 4 -8 1 -15 -5 -15 -6 0 -11 5 -11 10
0 19 -42 10 -47 -10 -3 -11 -9 -20 -14 -20 -5 0 -7 11 -3 25 5 19 2 25 -11 25
-14 0 -15 -3 -5 -15 10 -12 10 -15 -4 -15 -9 0 -16 -4 -16 -10 0 -18 -18 -10
-23 10 -4 17 -11 20 -34 15 -31 -7 -193 -34 -206 -35 -5 0 -6 4 -3 9 8 13
-187 10 -196 -3 -5 -7 -8 -8 -8 -1 0 13 -75 10 -132 -4 -21 -5 -35 -5 -33 0 3
4 -66 7 -154 6 -87 -1 -158 -4 -156 -7 2 -3 -20 -6 -48 -7 -29 -1 -67 -3 -84
-5 -18 -2 -33 -1 -33 4 0 4 -11 3 -25 -2 -16 -6 -26 -6 -31 1 -4 8 -9 7 -15
-2 -6 -10 -9 -10 -9 -2 0 9 -7 10 -25 3 -25 -10 -42 1 -30 20 3 6 -1 7 -9 4
-9 -3 -14 -10 -11 -14 7 -11 -37 -9 -52 2 -6 5 -14 5 -17 0 -8 -13 -46 -7 -56
9 -8 11 -35 14 -135 12 -92 -2 -124 0 -119 9 5 8 -2 9 -22 4 -19 -4 -24 -3
-15 2 23 16 -6 24 -46 13 -24 -7 -41 -7 -49 0 -6 5 -16 9 -20 8 -20 -3 -35 2
-29 10 3 5 -9 9 -27 9 -18 0 -71 2 -118 5 -73 5 -87 9 -104 29 -11 13 -17 16
-13 7 4 -13 -2 -18 -29 -21 -25 -3 -33 0 -30 8 3 7 -3 13 -12 13 -9 0 -28 2
-42 4 -100 17 -110 20 -104 30 3 7 -2 3 -10 -7 -14 -17 -16 -18 -16 -3 0 9 -4
17 -10 17 -5 0 -7 -7 -4 -15 4 -8 1 -15 -5 -15 -6 0 -11 9 -11 20 0 11 -4 20
-10 20 -5 0 -7 -6 -4 -14 4 -12 -1 -13 -31 -6 -19 4 -42 13 -50 20 -8 7 -24
10 -34 7 -11 -3 -22 0 -24 6 -4 13 -37 18 -37 6 0 -6 -5 -7 -11 -3 -8 4 -3 12
12 21 23 14 22 14 -15 9 -22 -3 -46 -1 -53 6 -8 7 -13 7 -13 0 0 -5 -9 -8 -20
-5 -11 3 -20 9 -20 14 0 5 -18 7 -41 5 -32 -3 -39 -1 -35 10 6 17 -8 18 -35 4
-14 -8 -19 -7 -19 1 0 7 -9 9 -21 6 -15 -4 -19 -2 -15 9 4 11 2 13 -11 6 -10
-6 -30 -6 -50 0 -19 5 -37 7 -41 4 -3 -3 -10 -1 -17 4 -7 6 -23 6 -42 1 -20
-6 -35 -5 -41 1 -6 6 -48 14 -94 18 -87 8 -106 12 -149 28 -15 6 -30 8 -33 5
-3 -3 -12 0 -20 6 -8 7 -20 10 -26 6 -5 -3 -10 -1 -10 4 0 6 -9 11 -19 11 -11
0 -22 6 -24 13 -3 6 -6 3 -6 -7 -1 -18 -2 -18 -14 -4 -10 14 -37 24 -85 34 -8
1 -19 10 -26 20 -7 9 -33 25 -57 34 -30 12 -45 24 -47 39 -2 11 -8 21 -14 21
-13 0 -48 30 -48 41 0 4 12 10 28 12 34 6 -81 1 -306 -14 -157 -10 -195 -8
-181 6 3 2 54 7 114 11 61 3 112 8 114 10 2 2 -27 5 -65 5 l-69 2 98 10 c85 8
97 12 97 28 0 12 7 19 20 19 11 0 20 7 20 15 0 8 4 15 9 15 5 0 9 42 8 92 -2
92 -2 93 -27 93 -22 0 -25 -4 -25 -35 0 -29 4 -36 22 -38 19 -3 23 -10 23 -38
0 -27 -4 -34 -19 -34 -10 0 -24 -7 -31 -15 -9 -11 -33 -15 -87 -15 l-74 0 3
478 3 477 34 3 33 3 -7 74 c-3 40 -3 75 2 78 5 3 28 -12 51 -34 37 -36 42 -46
42 -85 l0 -44 538 0 c295 0 661 -4 812 -10 151 -5 514 -12 807 -16 l532 -7 -2
-58 -2 -59 -172 0 c-158 0 -173 -2 -173 -17 0 -17 14 -18 170 -15 l170 3 0
-41 0 -40 -172 -2 -173 -2 173 -3 172 -3 0 -173 0 -172 -123 -4 c-67 -2 -133
-4 -147 -6 -14 -1 -35 -3 -47 -3 -22 -2 -23 -6 -23 -84 l0 -83 -27 -1 c-16 -1
-113 -5 -216 -9 l-188 -8 3 246 3 247 -52 0 c-33 0 -53 -4 -53 -11 0 -8 15
-10 45 -7 l45 6 0 -43 0 -42 -82 -11 c-78 -11 -195 -21 -263 -22 -27 -1 -28
-2 -12 -14 9 -7 17 -18 17 -24 0 -14 61 3 71 19 4 8 48 14 118 16 98 4 110 3
105 -11 -7 -19 -24 -21 -24 -3 0 6 -6 3 -12 -8 -11 -19 -11 -19 -19 0 -6 16
-8 17 -8 3 -1 -9 -9 -19 -18 -22 -10 -3 6 -3 35 0 38 3 52 1 54 -8 0 -7 2 -17
3 -23 2 -5 3 -27 4 -48 0 -21 5 -36 10 -32 6 3 8 33 6 68 -3 48 -2 56 6 37 5
-13 9 -51 7 -85 -3 -57 -4 -60 -28 -57 -32 3 -60 36 -53 63 5 19 4 20 -15 8
-18 -11 -19 -15 -7 -22 8 -4 15 -18 15 -31 0 -25 -21 -36 -72 -36 -23 0 -28 4
-28 25 0 14 -5 25 -10 25 -6 0 -8 -10 -4 -24 5 -23 4 -23 -88 -30 -51 -3 -151
-9 -222 -12 -71 -4 -134 -7 -140 -9 -6 -1 -22 -5 -36 -8 -14 -3 -49 -9 -77
-12 -46 -4 -53 -3 -53 12 -1 17 -1 17 -14 0 -10 -13 -15 -14 -19 -4 -3 8 -18
11 -45 9 l-40 -4 -1 -93 c-1 -51 -6 -107 -11 -124 -5 -17 -5 -32 -2 -34 8 -4
27 -3 207 12 72 6 254 20 405 32 262 19 329 27 244 30 -32 1 -28 3 25 11 49 8
65 7 71 -2 6 -10 47 -10 196 -1 104 6 221 16 259 21 39 6 99 15 135 20 l65 9
-62 -5 c-42 -3 -64 -1 -69 7 -5 9 -2 10 9 6 10 -3 17 -2 17 3 0 6 -7 10 -15
10 -10 0 -15 9 -14 28 l1 27 8 -25 c6 -22 8 -23 15 -7 4 9 15 17 25 17 11 0
22 5 25 10 10 16 63 12 73 -5 7 -14 11 -14 36 -1 34 17 53 12 59 -17 2 -12 6
14 8 58 3 74 3 76 6 23 2 -32 8 -58 12 -58 5 0 25 7 44 15 20 8 52 15 72 15
l35 0 1 313 c1 171 2 319 3 327 2 8 3 107 4 219 1 112 5 202 8 198 3 -3 8
-112 10 -243 3 -131 7 -240 9 -243 3 -2 5 70 5 160 0 110 4 159 10 149 8 -12
10 -8 11 15 l1 30 8 -30 c5 -20 8 1 9 68 1 57 -3 96 -8 93 -5 -4 -20 -2 -34 3
-17 7 -45 3 -103 -14 l-79 -22 2 -147 c0 -81 -3 -146 -8 -146 -5 0 -9 20 -9
44 l0 43 -267 7 c-365 9 -1234 33 -1828 51 -269 8 -509 15 -532 15 -31 0 -43
4 -43 14 0 18 14 27 47 31 14 1 28 7 32 12 8 12 75 43 94 43 9 0 19 5 22 10 9
15 -34 3 -135 -37 -111 -45 -210 -74 -210 -62 0 5 4 9 10 9 13 0 453 173 695
274 110 46 234 96 275 111 41 15 116 45 165 66 50 21 144 61 210 88 66 27 181
74 255 106 74 31 191 78 260 105 69 26 157 62 195 80 96 44 460 189 482 193
10 1 23 6 30 10 6 4 18 4 26 1 20 -7 77 23 77 41 0 18 -12 19 145 -5z m1321
-200 c149 -19 368 -53 554 -85 47 -8 141 -21 210 -30 69 -8 224 -31 345 -50
121 -19 272 -42 335 -50 63 -9 216 -31 340 -50 124 -19 347 -52 495 -75 149
-22 338 -51 420 -65 135 -22 316 -50 495 -76 35 -5 69 -14 74 -19 6 -6 7 -10
4 -10 -12 0 -867 127 -1103 164 -250 39 -397 58 -403 52 -3 -4 2 -6 10 -6 23
0 26 -17 19 -99 -5 -53 -11 -75 -24 -82 -9 -6 -17 -19 -17 -29 0 -16 -7 -19
-35 -18 -40 1 -38 -7 -39 150 l-1 88 35 1 c49 2 -57 20 -394 69 -153 23 -283
39 -290 36 -6 -2 1 -5 17 -5 29 -1 38 -20 10 -22 -17 -1 -17 -2 0 -6 26 -7 20
-23 -8 -23 -15 0 -25 -5 -24 -12 4 -31 -5 -39 -65 -68 -52 -24 -70 -28 -90
-20 -30 11 -56 -9 -56 -43 0 -20 -6 -22 -65 -25 -41 -2 -65 1 -65 7 0 6 10 11
22 11 12 0 19 3 15 6 -3 4 -18 4 -32 0 -19 -5 -25 -13 -25 -34 0 -41 -11 -74
-24 -69 -6 2 -31 1 -56 -3 l-45 -7 37 -2 c37 -1 37 -1 44 -51 7 -57 21 -66 27
-17 3 27 4 26 5 -11 2 -38 5 -43 25 -41 54 5 137 -2 137 -11 0 -5 -10 -10 -22
-10 -13 0 -32 -7 -42 -15 -11 -8 -37 -15 -57 -15 l-37 0 2 -107 c2 -60 3 -157
4 -216 1 -60 5 -106 10 -104 4 3 79 12 167 21 88 9 179 19 203 22 34 4 42 2
42 -10 0 -12 -11 -16 -50 -16 l-51 0 3 -62 3 -62 53 3 c83 4 61 -17 -25 -24
-134 -11 -133 -13 5 -8 l132 5 0 -26 c0 -14 -3 -26 -7 -26 -5 0 -7 -53 -5
-117 2 -112 15 -169 34 -157 4 3 8 -1 8 -9 0 -8 -7 -18 -16 -21 -13 -5 -14 -9
-4 -21 11 -13 8 -15 -16 -16 -28 0 -28 -1 -6 -10 27 -10 42 -4 42 17 0 8 5 14
11 14 6 0 8 -7 5 -16 -4 -10 1 -22 11 -30 16 -11 15 -12 -9 -10 -16 2 -28 -1
-28 -5 0 -5 -7 -9 -15 -9 -8 0 -15 5 -15 10 0 6 -6 10 -12 10 -8 -1 -4 -8 7
-18 20 -17 23 -52 4 -52 -5 0 -9 -5 -9 -11 0 -6 8 -9 18 -7 10 2 16 11 14 21
-2 9 2 17 8 17 5 0 10 -5 10 -11 0 -6 9 -9 20 -6 12 3 20 0 20 -8 0 -7 -10
-15 -22 -18 -12 -4 -19 -9 -15 -13 4 -4 2 -13 -4 -21 -9 -10 -6 -13 12 -15 13
0 33 0 44 1 19 2 19 1 2 -16 -11 -12 -20 -14 -25 -8 -4 6 -18 10 -31 9 -21 -1
-23 2 -18 32 5 26 3 32 -10 27 -9 -4 -13 -13 -9 -27 3 -11 6 -26 6 -32 0 -7
11 -15 25 -18 29 -7 34 -26 8 -27 -11 0 -13 -3 -5 -6 6 -2 10 -9 6 -14 -3 -5
0 -9 7 -9 10 0 10 -3 2 -11 -13 -13 0 -58 20 -71 9 -6 9 -8 0 -8 -7 0 -13 -7
-13 -15 0 -8 5 -15 10 -15 6 0 10 4 10 9 0 5 8 11 18 15 9 3 23 9 30 12 7 3
12 -1 12 -9 0 -9 -6 -18 -12 -20 -7 -3 1 -5 17 -5 17 0 24 2 18 5 -7 2 -13 12
-13 20 0 10 6 13 16 9 9 -3 37 -6 63 -6 41 0 49 -3 59 -25 l12 -25 -133 1
c-154 2 -209 9 -215 28 -3 10 0 12 12 8 12 -5 16 -1 16 15 0 19 -4 20 -50 14
-49 -7 -50 -6 -50 19 0 15 -4 24 -10 20 -5 -3 -10 -15 -10 -26 0 -14 -7 -19
-30 -19 l-30 0 -1 73 c-1 39 -3 63 -6 52 -3 -11 -9 -24 -14 -29 -5 -6 -9 -29
-9 -53 l0 -43 -41 0 -40 0 5 73 5 72 -11 -73 -10 -72 -31 2 c-18 1 -38 6 -44
11 -7 5 -22 7 -33 4 -11 -3 -20 0 -20 5 0 7 -4 7 -12 1 -7 -6 -44 -11 -81 -12
l-68 -2 3 111 3 111 -90 -2 c-88 -2 -90 -1 -93 22 -2 13 -1 21 3 18 3 -4 27 0
52 7 25 8 63 14 85 14 l38 0 0 311 c0 194 4 318 10 330 6 10 12 64 15 119 3
86 2 101 -13 109 -15 8 -17 31 -19 173 -3 292 -6 314 -39 301 -12 -4 -13 2 -8
36 6 41 6 41 -22 37 -16 -2 -42 -7 -59 -11 -26 -5 -32 -2 -42 21 -16 34 -17
61 -3 66 6 2 12 17 13 33 2 21 8 30 20 29 9 -1 17 2 17 7 0 5 26 7 58 4 92 -7
44 2 -233 45 -143 22 -293 45 -332 51 -40 7 -73 16 -73 20 0 12 -4 12 176 -11z
m-476 -45 c-14 -8 -36 -14 -50 -14 -20 1 -17 4 15 14 53 18 66 18 35 0z m380
-9 c0 -11 -19 -15 -25 -6 -3 5 1 10 9 10 9 0 16 -2 16 -4z m133 -11 c-18 -8
-33 -19 -33 -24 0 -6 13 -8 33 -5 l32 6 -33 -21 c-47 -31 -62 -27 -62 13 0 36
9 42 70 44 23 1 22 0 -7 -13z m117 -5 c0 -5 -8 -10 -17 -10 -15 0 -16 2 -3 10
19 12 20 12 20 0z m1330 -40 c0 -5 -4 -10 -10 -10 -5 0 -10 5 -10 10 0 6 5 10
10 10 6 0 10 -4 10 -10z m-1580 -50 c0 -23 -26 -34 -34 -13 -7 18 12 46 25 37
5 -3 9 -13 9 -24z m-360 -44 c0 -9 -10 -13 -25 -12 -31 1 -33 13 -2 19 12 2
23 5 25 6 1 0 2 -5 2 -13z m30 4 c0 -5 -5 -10 -11 -10 -5 0 -7 5 -4 10 3 6 8
10 11 10 2 0 4 -4 4 -10z m304 -35 c-4 -17 -9 -23 -14 -15 -5 8 -9 6 -14 -7
-7 -17 -8 -17 -22 1 -11 16 -14 17 -14 4 0 -22 -40 -31 -41 -10 0 12 -3 10 -9
-5 -10 -25 -25 -30 -36 -11 -5 7 -12 5 -22 -8 -10 -13 -16 -15 -19 -6 -7 17
-33 15 -33 -3 0 -25 -17 -17 -24 11 -8 31 1 45 14 24 8 -13 10 -12 10 3 0 9 4
17 10 17 5 0 7 -7 4 -15 -4 -8 -1 -15 5 -15 6 0 11 9 11 20 0 13 7 20 20 20
11 0 20 -4 20 -10 0 -6 9 -6 25 0 14 5 25 8 25 5 0 -2 16 3 35 11 20 8 40 12
45 9 5 -3 12 0 15 6 11 17 16 3 9 -26z m1253 29 c-3 -3 -12 -4 -19 -1 -8 3 -5
6 6 6 11 1 17 -2 13 -5z m-1657 -19 c0 -8 -2 -15 -4 -15 -2 0 -6 7 -10 15 -3
8 -1 15 4 15 6 0 10 -7 10 -15z m195 5 c-3 -5 -16 -10 -28 -9 -21 0 -21 1 -2
9 28 12 37 12 30 0z m-359 -18 c-10 -2 -22 0 -28 6 -6 6 0 7 19 4 21 -5 23 -7
9 -10z m209 -2 c3 -5 1 -10 -4 -10 -6 0 -11 5 -11 10 0 6 2 10 4 10 3 0 8 -4
11 -10z m45 -25 c0 -8 -7 -15 -15 -15 -13 0 -14 -4 -5 -21 7 -11 9 -23 6 -26
-3 -3 -10 7 -16 22 -9 23 -7 30 7 41 23 17 23 17 23 -1z m-104 -16 c0 -9 -6
-15 -13 -12 -7 3 -13 11 -13 17 0 7 6 13 13 13 7 0 13 -8 13 -18z m21 -26 c-3
-10 -5 -4 -5 12 0 17 2 24 5 18 2 -7 2 -21 0 -30z m423 17 c-20 -13 -63 -13
-55 0 3 6 21 10 38 10 24 0 28 -3 17 -10z m-393 -32 c-3 -7 -5 -2 -5 12 0 14
2 19 5 13 2 -7 2 -19 0 -25z m323 22 c0 -5 -5 -10 -11 -10 -5 0 -7 5 -4 10 3
6 8 10 11 10 2 0 4 -4 4 -10z m-30 -8 c0 -5 -20 -13 -45 -19 -54 -12 -61 1 -7
15 49 13 52 13 52 4z m-400 -42 c0 -11 -4 -20 -10 -20 -5 0 -10 9 -10 20 0 11
5 20 10 20 6 0 10 -9 10 -20z m17 -2 c-3 -8 -6 -5 -6 6 -1 11 2 17 5 13 3 -3
4 -12 1 -19z m273 13 c-26 -15 -80 -23 -80 -12 0 9 28 16 75 19 16 1 17 0 5
-7z m2425 -21 c3 -5 12 -10 18 -10 7 0 7 4 -2 9 -16 10 46 5 109 -9 29 -7 23
-8 -35 -9 -48 -1 -78 -6 -94 -18 -14 -9 -21 -12 -18 -6 4 6 0 14 -9 17 -8 3
-13 2 -10 -3 3 -5 -1 -11 -9 -15 -8 -3 -15 0 -15 7 0 9 -2 9 -8 -1 -5 -7 -38
-15 -74 -19 -70 -6 -162 3 -154 16 3 4 45 13 93 20 48 7 106 17 128 21 57 11
73 11 80 0z m-555 -14 c0 -18 -16 -29 -30 -21 -13 8 -1 35 16 35 8 0 14 -6 14
-14z m-1990 -10 c0 -2 -7 -6 -15 -10 -8 -3 -15 -1 -15 4 0 6 7 10 15 10 8 0
15 -2 15 -4z m2749 0 c-26 -25 -105 -56 -141 -56 -53 0 -78 14 -60 32 10 10
49 16 186 26 11 1 17 0 15 -2z m-1079 -19 c0 -5 -7 -7 -15 -3 -8 3 -15 1 -15
-4 0 -5 -11 -9 -25 -8 -14 1 -25 6 -25 11 0 5 6 7 13 4 8 -3 19 -2 26 2 17 11
41 9 41 -2z m-100 -18 c0 -6 -6 -9 -14 -6 -8 3 -22 -1 -33 -8 -10 -8 -22 -14
-28 -15 -5 0 -3 5 5 10 9 6 10 10 3 10 -23 0 -43 -12 -43 -27 0 -8 -4 -12 -9
-9 -17 11 -19 -23 -2 -36 13 -10 16 -21 10 -48 l-6 -35 -2 38 c-1 26 -6 37
-16 37 -8 0 -14 6 -12 13 2 14 -74 17 -113 3 -22 -8 -24 -7 -11 8 12 14 12 16
-3 10 -9 -3 -16 -10 -16 -16 0 -5 -4 -6 -10 -3 -5 3 -10 1 -10 -5 0 -7 7 -10
15 -6 18 7 19 -3 1 -26 -20 -27 -26 -22 -26 21 l0 40 73 15 c231 49 247 51
247 35z m185 1 c-3 -5 -14 -10 -23 -9 -14 0 -13 2 3 9 27 11 27 11 20 0z m208
-20 c-3 -11 -15 -17 -36 -17 -18 0 -40 -4 -49 -8 -12 -5 -18 -3 -18 6 0 8 -6
5 -15 -7 -13 -16 -16 -17 -25 -4 -8 12 -12 13 -19 1 -7 -10 -13 -11 -30 -2
-17 10 -21 9 -21 -4 0 -8 -4 -15 -9 -15 -12 0 -25 39 -17 47 3 4 6 0 6 -8 0
-12 2 -11 11 1 8 11 12 12 16 3 6 -17 23 -16 23 0 0 11 15 13 60 11 33 -2 60
0 60 4 0 4 15 8 34 9 27 0 33 -3 29 -17z m-464 -44 c-3 -3 -11 5 -18 17 -13
21 -12 21 5 5 10 -10 16 -20 13 -22z m71 -23 c-11 -17 -11 -17 -6 0 3 10 7 28
7 40 2 22 2 22 6 0 2 -12 -1 -30 -7 -40z m40 20 c0 -25 -15 -12 -17 14 -1 19
1 22 8 12 5 -8 9 -20 9 -26z m47 22 c0 -8 -4 -12 -9 -9 -4 3 -8 9 -8 15 0 5 4
9 8 9 5 0 9 -7 9 -15z m-1947 -5 c0 -5 -5 -10 -11 -10 -5 0 -7 5 -4 10 3 6 8
10 11 10 2 0 4 -4 4 -10z m2276 -9 c-7 -11 -76 -20 -76 -10 0 9 25 16 58 18
13 0 21 -3 18 -8z m-86 -15 c0 -2 -13 -6 -30 -8 -16 -3 -30 -1 -30 4 0 4 14 8
30 8 17 0 30 -2 30 -4z m-406 -21 c3 -8 1 -15 -4 -15 -6 0 -10 7 -10 15 0 8 2
15 4 15 2 0 6 -7 10 -15z m295 1 c-11 -10 -79 -16 -79 -7 0 5 17 11 38 13 37
3 49 1 41 -6z m38 8 c-3 -3 -12 -4 -19 -1 -8 3 -5 6 6 6 11 1 17 -2 13 -5z
m1296 -35 c-17 -17 -37 -1 -22 17 8 10 15 12 23 4 7 -7 7 -13 -1 -21z m386 25
c73 -15 3 -58 -74 -45 -43 7 -48 20 -14 38 27 14 44 16 88 7z m298 0 c-3 -3
-12 -4 -19 -1 -8 3 -5 6 6 6 11 1 17 -2 13 -5z m-977 -24 c0 -5 -7 -7 -15 -4
-8 4 -15 1 -15 -6 0 -6 -5 -8 -11 -4 -8 4 -7 9 2 15 19 12 39 11 39 -1z m1093
3 c-7 -2 -19 -2 -25 0 -7 3 -2 5 12 5 14 0 19 -2 13 -5z m-1173 -16 c-14 -7
-27 -9 -28 -5 -2 5 -15 2 -29 -7 -18 -12 -28 -14 -38 -5 -11 9 -18 7 -34 -9
-19 -19 -19 -51 0 -51 5 0 8 -15 8 -32 l-1 -33 -7 30 c-4 19 -13 30 -23 29
-10 -1 -14 4 -11 12 15 41 -100 27 -145 -18 l-32 -30 0 40 0 39 108 17 c59 10
125 20 147 23 22 3 42 7 44 9 2 2 18 4 35 4 l31 0 -25 -13z m1450 -18 c80 -12
152 -26 160 -31 16 -10 -11 -8 -140 11 -149 21 -210 33 -210 41 0 4 10 6 23 4
12 -2 87 -13 167 -25z m-2812 4 c-9 -10 -13 -24 -11 -30 3 -7 0 -13 -7 -13 -6
0 -8 5 -4 11 4 7 1 10 -7 7 -8 -3 -13 -11 -11 -17 1 -6 -2 -11 -8 -11 -5 0
-10 5 -10 11 0 6 -7 8 -16 5 -12 -5 -15 -2 -10 10 3 8 6 20 6 25 0 5 5 9 11 9
5 0 7 -4 4 -10 -10 -16 23 -12 37 5 7 8 19 14 27 15 12 0 11 -3 -1 -17z m-98
-3 c0 -5 -12 -10 -27 -9 -25 0 -26 1 -8 9 27 12 35 12 35 0z m380 2 c0 -10
-249 -56 -258 -48 -11 11 8 17 109 35 121 22 149 24 149 13z m1223 -9 c-6 -15
-4 -16 9 -5 13 10 17 10 21 0 3 -9 9 -8 19 6 9 11 18 15 21 9 4 -6 27 -7 59
-2 74 11 88 10 88 -1 0 -5 -10 -14 -21 -21 -17 -9 -23 -8 -30 2 -6 9 -9 10 -9
2 0 -6 -11 -10 -25 -8 -14 1 -25 -2 -25 -6 0 -5 -7 -9 -15 -9 -8 0 -15 5 -15
12 0 9 -3 9 -11 1 -6 -6 -18 -9 -26 -6 -8 3 -19 0 -24 -8 -8 -12 -11 -12 -19
1 -13 19 -13 50 0 50 5 0 6 -8 3 -17z m2107 7 c0 -5 -5 -10 -11 -10 -5 0 -7 5
-4 10 3 6 8 10 11 10 2 0 4 -4 4 -10z m-2340 -25 c7 -9 8 -15 2 -15 -5 0 -12
7 -16 15 -3 8 -4 15 -2 15 2 0 9 -7 16 -15z m54 -1 c3 -9 6 -21 5 -27 0 -7 -4
-2 -10 11 -5 14 -13 20 -20 16 -8 -4 -9 -3 -5 4 10 17 23 15 30 -4z m-1424 -4
c0 -5 -11 -10 -25 -10 -14 0 -25 5 -25 10 0 6 11 10 25 10 14 0 25 -4 25 -10z
m1460 -2 c0 -7 -4 -19 -9 -27 -7 -10 -9 -7 -8 12 2 26 17 39 17 15z m60 -23
c0 -5 -5 -3 -10 5 -5 8 -10 20 -10 25 0 6 5 3 10 -5 5 -8 10 -19 10 -25z m315
15 c-3 -5 -16 -10 -28 -9 -20 1 -20 2 3 9 14 4 26 8 28 9 2 1 0 -3 -3 -9z
m1033 3 c-10 -2 -18 -8 -18 -13 0 -13 -65 -23 -95 -16 -14 4 -25 10 -25 15 0
14 27 19 95 19 33 0 52 -2 43 -5z m-1937 -188 c4 -99 7 -210 8 -247 l1 -67 28
5 c47 9 357 31 366 26 14 -8 -17 -22 -51 -22 -33 0 -33 0 -33 -51 l0 -52 40 6
c39 5 57 -7 23 -16 -10 -3 2 -5 27 -6 l45 -1 -3 -292 c-2 -161 -5 -294 -6
-296 -2 -1 -27 -5 -56 -9 -45 -5 -55 -3 -68 13 -13 16 -14 16 -9 2 5 -13 1
-18 -13 -18 -17 0 -20 7 -20 40 0 22 -4 40 -10 40 -5 0 -10 -18 -10 -40 0 -36
-2 -40 -26 -40 -20 0 -25 4 -20 16 3 9 8 28 11 42 3 21 2 19 -7 -5 -12 -37
-20 -40 -38 -18 -11 13 -9 20 9 38 11 13 21 27 21 31 0 5 -9 -3 -21 -18 -17
-21 -24 -24 -35 -15 -12 9 -13 9 -9 -3 3 -8 -6 -25 -20 -38 -15 -14 -25 -34
-25 -52 0 -17 -4 -27 -10 -23 -13 8 -13 70 0 93 5 9 13 124 17 255 6 187 5
237 -4 237 -7 0 -13 9 -13 20 0 17 7 20 43 21 23 1 33 4 23 6 -10 3 -47 2 -82
-2 l-64 -7 0 -129 c0 -110 -2 -129 -16 -129 -12 0 -14 -8 -10 -42 3 -24 2
-133 -2 -243 -6 -179 -9 -200 -24 -203 -17 -3 -18 10 -19 165 -1 92 -1 171 0
176 0 4 -6 7 -14 7 -8 0 -14 -5 -12 -11 1 -6 -4 -14 -12 -17 -8 -3 -11 0 -7 7
5 8 -19 11 -83 11 -83 0 -91 2 -91 19 0 17 12 21 90 32 l90 13 2 360 c2 312 3
334 8 166 4 -137 6 -163 8 -89 1 58 5 146 8 196 7 86 6 90 -15 96 -18 4 -21
12 -21 60 l0 54 -41 6 c-22 3 -44 8 -47 12 -11 10 21 25 56 25 31 0 32 1 32
46 l0 45 53 -3 52 -3 6 -180z m1629 170 c0 -8 -4 -15 -9 -15 -13 0 -22 16 -14
24 11 11 23 6 23 -9z m-1193 -17 c-3 -8 -6 -5 -6 6 -1 11 2 17 5 13 3 -3 4
-12 1 -19z m383 18 c0 -2 -11 -6 -25 -8 -14 -3 -25 -1 -25 3 0 5 11 9 25 9 14
0 25 -2 25 -4z m540 -4 c0 -4 -15 -9 -32 -10 -18 -1 -41 -5 -50 -8 -10 -3 -18
-1 -18 5 0 5 17 12 38 14 20 2 43 4 50 5 6 1 12 -2 12 -6z m-650 -12 c-14 -4
-34 -8 -45 -8 l-20 -1 20 9 c11 5 31 8 45 8 l25 0 -25 -8z m527 -11 c-9 -6
-15 -16 -11 -22 3 -7 -1 -4 -9 6 -15 18 -16 18 -42 1 -24 -16 -25 -19 -11 -29
9 -7 15 -25 15 -41 l-2 -29 -4 28 c-2 15 -11 27 -19 27 -8 0 -13 6 -11 13 1 8
-14 12 -50 12 -44 -1 -57 -6 -83 -30 l-30 -29 0 37 c0 20 2 37 4 37 3 0 38 5
78 10 40 6 95 12 121 14 27 3 51 7 55 10 3 3 8 3 11 0 3 -3 -2 -10 -12 -15z
m283 -13 c14 1 42 4 63 8 39 6 50 -6 19 -23 -13 -7 -23 -6 -30 1 -9 9 -12 9
-12 1 0 -6 -8 -10 -17 -8 -10 1 -23 -2 -30 -7 -7 -5 -14 -5 -18 2 -3 6 -11 7
-17 4 -23 -14 -67 -12 -73 4 -8 21 4 30 15 12 9 -13 10 -13 10 0 0 13 1 13 10
0 9 -13 12 -13 21 3 7 11 15 15 22 10 7 -5 23 -8 37 -7z m-1850 -6 c0 -5 -9
-10 -21 -10 -11 0 -17 5 -14 10 3 6 13 10 21 10 8 0 14 -4 14 -10z m667 -8
c-10 -10 -17 -25 -17 -33 0 -12 -2 -12 -9 0 -7 11 -11 10 -20 -5 -6 -12 -11
-14 -11 -5 0 8 -6 11 -16 7 -11 -4 -15 0 -12 16 2 12 9 23 16 26 7 2 10 -2 6
-11 -4 -12 0 -14 16 -10 12 3 24 12 27 19 3 8 12 14 21 14 13 0 13 -2 -1 -18z
m1023 14 c0 -3 -4 -8 -10 -11 -5 -3 -10 -1 -10 4 0 6 5 11 10 11 6 0 10 -2 10
-4z m-1125 -36 c1 -16 -5 -20 -27 -20 -34 0 -36 7 -5 20 20 8 21 9 2 10 l-20
1 20 8 c24 10 28 7 30 -19z m371 13 c-12 -13 -240 -41 -250 -32 -6 6 -4 9 5
10 7 0 52 7 99 14 100 15 156 18 146 8z m206 -210 c2 -112 6 -204 9 -207 2 -2
65 2 139 10 166 16 220 17 220 4 0 -5 -18 -10 -39 -10 l-39 0 1 -40 c1 -22 6
-40 10 -40 5 0 7 15 5 33 -3 28 0 32 25 35 31 4 35 -12 11 -46 -14 -21 -14
-22 5 -22 16 0 21 7 23 28 2 46 3 50 11 58 4 4 7 -12 7 -35 0 -23 -6 -48 -13
-56 -11 -11 -250 -35 -349 -35 -17 0 -18 -12 -18 -176 l0 -176 41 7 c34 6 40
5 33 -6 -5 -8 -7 -22 -6 -31 2 -10 -1 -18 -7 -18 -5 0 -15 8 -20 18 -10 16
-10 16 -11 0 0 -10 -4 -18 -9 -18 -6 0 -8 -9 -6 -20 2 -11 0 -18 -5 -15 -4 3
-7 20 -5 38 2 17 1 24 -1 14 -3 -9 -10 -15 -15 -11 -5 3 -7 10 -4 15 4 5 -5 9
-19 9 -22 0 -26 -5 -26 -30 0 -22 4 -28 15 -24 8 4 15 10 15 15 0 5 5 9 10 9
6 0 10 -9 10 -20 0 -15 -7 -20 -26 -20 -24 0 -25 -2 -22 -47 3 -40 6 -47 26
-48 12 -1 22 2 22 7 0 5 6 6 12 2 18 -11 48 -12 48 -2 0 4 -4 8 -10 8 -5 0
-10 9 -10 21 0 15 5 19 15 15 13 -4 14 -2 5 14 -9 16 -8 20 5 20 12 0 15 -13
15 -58 l0 -59 -37 -1 c-20 -1 -40 4 -44 10 -5 8 -12 3 -20 -15 -7 -15 -20 -27
-31 -27 -10 0 -18 -6 -18 -14 0 -8 -16 -16 -42 -19 -24 -3 -54 -9 -68 -13
l-25 -7 23 20 c12 11 22 30 22 42 0 18 6 21 45 21 45 0 45 0 45 36 0 21 -4 33
-10 29 -6 -4 -10 23 -10 75 0 73 -2 81 -17 76 -34 -9 -128 -16 -108 -8 19 9
19 9 0 20 -31 17 -11 25 67 26 l73 1 0 265 c0 146 4 287 8 313 6 44 5 49 -13
54 -19 5 -20 12 -18 107 l3 101 40 5 c22 3 43 3 46 0 4 -3 9 -96 11 -207z
m495 195 c-3 -8 -6 -5 -6 6 -1 11 2 17 5 13 3 -3 4 -12 1 -19z m-1633 -10 c9
-35 8 -38 -14 -38 -16 0 -20 7 -20 30 0 36 25 41 34 8z m1961 12 c-3 -5 -15
-10 -26 -10 -10 0 -19 5 -19 10 0 6 12 10 26 10 14 0 23 -4 19 -10z m-428 -22
c-3 -8 -6 -5 -6 6 -1 11 2 17 5 13 3 -3 4 -12 1 -19z m350 16 c-3 -3 -23 -8
-44 -10 -31 -3 -34 -2 -13 5 30 11 66 14 57 5z m-107 -14 c-8 -5 -24 -9 -35
-9 -16 1 -16 2 5 9 35 11 48 11 30 0z m-2367 -17 c-7 -2 -21 -2 -30 0 -10 3
-4 5 12 5 17 0 24 -2 18 -5z m2037 3 c0 -2 -6 -16 -14 -31 -9 -18 -16 -22 -20
-13 -4 9 -8 10 -11 2 -9 -17 -47 -4 -41 13 3 8 6 17 6 19 0 2 5 4 11 4 5 0 7
-4 4 -10 -10 -16 23 -12 37 5 12 13 28 20 28 11z m-2401 -11 c-8 -7 -340 -56
-358 -53 -9 2 58 15 149 30 167 26 217 32 209 23z m514 -2 c-13 -2 -35 -2 -50
0 -16 2 -5 4 22 4 28 0 40 -2 28 -4z m1787 -13 c0 -15 -6 -20 -27 -19 l-28 1
25 8 25 8 -25 2 c-23 1 -23 2 -5 10 30 13 35 12 35 -10z m340 6 c0 -9 -28 -16
-100 -25 -125 -14 -140 -14 -121 -2 8 5 52 13 97 16 44 4 88 11 95 16 20 12
29 11 29 -5z m-1967 -3 c-7 -2 -19 -2 -25 0 -7 3 -2 5 12 5 14 0 19 -2 13 -5z
m1231 -7 c-9 -24 -76 -34 -104 -16 -24 16 6 30 62 30 37 0 46 -3 42 -14z
m-1101 -3 c-7 -2 -21 -2 -30 0 -10 3 -4 5 12 5 17 0 24 -2 18 -5z m2557 -3 c0
-5 -4 -10 -10 -10 -5 0 -10 5 -10 10 0 6 5 10 10 10 6 0 10 -4 10 -10z m-1432
-25 c-3 -3 -9 2 -12 12 -6 14 -5 15 5 6 7 -7 10 -15 7 -18z m-161 -1 c-3 -3
-12 -4 -19 -1 -8 3 -5 6 6 6 11 1 17 -2 13 -5z m-2154 -11 c-7 -2 -19 -2 -25
0 -7 3 -2 5 12 5 14 0 19 -2 13 -5z m-148 -24 c-60 -11 -117 -18 -125 -16 -18
4 163 34 205 34 17 1 -19 -8 -80 -18z m490 7 c-11 -8 -23 -12 -28 -9 -13 8 3
23 26 23 20 0 20 0 2 -14z m2805 4 c0 -5 -2 -10 -4 -10 -3 0 -8 5 -11 10 -3 6
-1 10 4 10 6 0 11 -4 11 -10z m-2850 -4 c0 -3 -4 -8 -10 -11 -5 -3 -10 -1 -10
4 0 6 5 11 10 11 6 0 10 -2 10 -4z m-39 -19 c-6 -8 -8 -17 -4 -20 3 -4 2 -7
-3 -7 -6 0 -11 -161 -13 -402 -1 -222 -5 -405 -7 -407 -2 -2 -4 185 -4 416 0
231 3 423 7 426 3 4 13 7 21 7 11 0 12 -3 3 -13z m2539 -1 c0 -3 -4 -8 -10
-11 -5 -3 -10 -1 -10 4 0 6 5 11 10 11 6 0 10 -2 10 -4z m785 -16 c3 -5 -1
-10 -10 -10 -9 0 -13 5 -10 10 3 6 8 10 10 10 2 0 7 -4 10 -10z m-4005 -9
c-16 -10 -148 -32 -177 -30 -10 1 25 9 77 19 114 21 119 22 100 11z m1965 -1
c-11 -5 -33 -9 -48 -9 -16 -1 -26 -5 -23 -9 3 -5 -8 -6 -25 -4 -27 4 -34 -3
-30 -30 0 -5 -6 -8 -14 -8 -18 0 -20 39 -2 45 13 5 122 22 147 23 9 0 7 -3 -5
-8z m-5688 -62 c-3 -7 -5 -2 -5 12 0 14 2 19 5 13 2 -7 2 -19 0 -25z m3511 25
c-10 -2 -26 -2 -35 0 -10 3 -2 5 17 5 19 0 27 -2 18 -5z m2981 -3 c-8 -5 -34
-11 -58 -14 -25 -3 -49 -13 -57 -23 -13 -17 -13 -17 -14 4 0 19 7 23 48 28 26
3 54 8 62 9 29 7 35 5 19 -4z m-3051 -7 c-10 -2 -26 -2 -35 0 -10 3 -2 5 17 5
19 0 27 -2 18 -5z m-65 -10 c-7 -2 -19 -2 -25 0 -7 3 -2 5 12 5 14 0 19 -2 13
-5z m4660 -29 c-7 -18 -43 -18 -43 0 0 8 6 16 13 19 19 7 36 -3 30 -19z
m-2490 1 c4 -8 2 -17 -3 -20 -6 -4 -10 3 -10 14 0 25 6 27 13 6z m-1 -243 c-2
-108 -6 -199 -8 -201 -2 -2 -4 89 -4 204 0 115 3 205 7 201 5 -4 6 -96 5 -204z
m828 104 c-7 -7 -10 6 -9 40 l1 49 9 -39 c6 -26 6 -43 -1 -50z m670 57 c-8 -3
-22 -12 -30 -19 -9 -8 -21 -10 -29 -5 -23 14 -2 31 37 30 20 0 30 -3 22 -6z
m360 -3 c0 -5 -4 -10 -10 -10 -5 0 -10 5 -10 10 0 6 5 10 10 10 6 0 10 -4 10
-10z m164 -15 c-4 -8 -12 -15 -20 -15 -8 0 -14 7 -14 15 0 8 9 15 20 15 13 0
18 -5 14 -15z m-854 -9 c0 -3 -4 -8 -10 -11 -5 -3 -10 -1 -10 4 0 6 5 11 10
11 6 0 10 -2 10 -4z m-3330 -71 c0 -42 -3 -55 -15 -55 -10 0 -15 10 -15 28
l-1 27 -13 -30 -13 -30 1 38 c0 24 4 36 12 33 7 -3 9 5 6 20 -3 19 0 24 17 24
19 0 21 -6 21 -55z m1698 -2 c3 -35 0 -42 -18 -48 -31 -10 -48 10 -32 35 7 12
8 20 2 20 -14 0 -12 27 3 33 29 13 42 1 45 -40z m-2293 2 c0 -31 -19 -45 -28
-21 -8 20 4 57 17 53 6 -2 11 -16 11 -32z m4633 17 c2 -7 -3 -12 -12 -12 -9 0
-16 7 -16 16 0 17 22 14 28 -4z m-2936 -9 c6 -25 -1 -43 -17 -43 -7 0 -15 6
-18 13 -5 14 10 47 22 47 5 0 11 -8 13 -17z m1723 -2 c8 -25 -3 -49 -26 -56
-34 -11 -49 16 -33 59 9 22 51 20 59 -3z m-3371 -42 c-12 -20 -34 -8 -34 18 0
25 1 26 20 8 11 -10 17 -22 14 -26z m2806 22 c0 -11 -5 -23 -11 -27 -15 -9
-33 12 -26 30 9 23 37 20 37 -3z m825 -1 c0 -8 -8 -16 -17 -18 -13 -2 -18 3
-18 18 0 15 5 20 18 18 9 -2 17 -10 17 -18z m-1935 -21 c0 -5 -7 -9 -15 -9 -9
0 -15 9 -15 21 0 18 2 19 15 9 8 -7 15 -16 15 -21z m959 -86 c-1 -71 -4 -108
-9 -93 -7 25 -11 22 -23 -20 -2 -8 -7 22 -12 68 l-7 82 -82 1 c-54 0 -74 3
-61 9 11 5 14 9 8 9 -7 1 -13 10 -13 21 0 12 -7 21 -17 22 -34 2 73 15 145 16
l72 2 -1 -117z m201 82 c0 -3 -9 -5 -20 -5 -11 0 -20 7 -20 15 0 13 4 14 20 5
11 -6 20 -13 20 -15z m816 -1 c-3 -7 0 -14 6 -16 15 -5 1 -28 -17 -28 -8 0
-13 12 -13 34 0 26 4 33 15 29 8 -3 12 -11 9 -19z m-3668 -40 c3 -25 -13 -48
-27 -40 -12 8 -15 49 -4 60 11 11 28 1 31 -20z m1696 17 c9 -14 -4 -41 -20
-41 -8 0 -14 10 -14 25 0 25 23 35 34 16z m1156 -3 c0 -22 -17 -41 -29 -34
-19 12 -13 46 9 46 11 0 20 -6 20 -12z m1346 -30 c-3 -13 -6 -128 -6 -255 l0
-233 -49 0 -50 0 1 50 c0 36 5 53 16 60 10 6 12 10 4 10 -8 0 -11 12 -7 38 2
20 7 60 10 87 l5 51 -42 -4 c-50 -5 -67 -17 -50 -34 14 -14 16 -114 2 -123 -6
-4 -10 -57 -10 -126 0 -106 -2 -120 -16 -117 -14 3 -16 20 -15 132 l2 129 -35
-6 c-72 -12 -71 -14 -68 159 3 106 0 154 -7 154 -6 0 -11 6 -11 14 0 20 77 30
259 34 72 2 73 1 67 -20z m-527 -7 c10 -6 10 -10 1 -16 -9 -6 -9 -9 0 -15 9
-6 7 -11 -7 -19 -19 -9 -20 -7 -19 24 1 37 3 40 25 26z m-830 -37 c-9 -11 -9
-14 2 -14 10 0 9 -4 -3 -17 -16 -15 -16 -17 -1 -28 19 -14 11 -45 -11 -45 -11
0 -14 15 -12 69 1 63 2 68 19 59 15 -7 16 -12 6 -24z m-1152 -17 c-2 -18 -6
-38 -10 -44 -5 -7 -4 -13 1 -13 16 0 21 -38 8 -55 -11 -15 -13 -15 -25 -2 -9
11 -10 25 -3 50 5 18 8 50 7 70 -3 27 0 34 10 31 8 -4 13 -18 12 -37z m-1700
-30 c1 -25 -2 -49 -7 -52 -6 -4 -4 -13 6 -22 10 -11 13 -24 9 -42 -8 -32 -11
-35 -24 -26 -12 7 -10 132 2 152 4 6 3 14 -3 18 -14 9 -12 27 3 23 7 -3 13
-24 14 -51z m3690 7 c8 -21 -13 -42 -28 -27 -13 13 -5 43 11 43 6 0 13 -7 17
-16z m-15 -53 c18 -21 14 -31 -13 -31 -22 0 -31 13 -23 34 8 21 16 20 36 -3z
m1101 -38 c3 -16 3 -92 0 -170 -6 -130 -8 -143 -25 -143 -17 0 -18 11 -18 163
0 90 3 167 7 170 14 15 31 6 36 -20z m-1933 2 c0 -8 5 -15 11 -15 5 0 7 -4 4
-10 -8 -13 -42 -13 -50 0 -10 16 2 40 20 40 8 0 15 -7 15 -15z m1488 -20 c-6
-14 -19 -25 -29 -25 -9 0 -20 -6 -22 -12 -4 -10 -8 -10 -15 1 -5 7 -15 10 -21
7 -13 -9 -25 18 -17 39 4 11 21 15 60 15 l56 0 -12 -25z m-2638 -21 c13 -34
13 -34 -15 -34 -20 0 -25 5 -25 23 0 44 25 50 40 11z m1982 5 c20 -11 20 -11
-2 -26 -12 -8 -24 -12 -28 -8 -3 3 0 10 8 15 10 7 11 10 3 10 -7 0 -13 5 -13
10 0 13 6 13 32 -1z m682 -141 c-2 -156 -1 -148 -19 -148 -11 0 -15 11 -15 38
l0 37 -45 -3 c-33 -3 -45 0 -45 9 0 31 16 41 54 34 l36 -7 0 76 c0 48 5 82 13
90 6 8 14 10 17 6 3 -5 4 -64 4 -132z m-1514 94 l22 -18 -27 -18 c-30 -20 -50
-12 -22 9 15 11 16 13 2 19 -16 6 -21 26 -6 26 5 0 19 -8 31 -18z m1377 -14
c-3 -7 -5 -2 -5 12 0 14 2 19 5 13 2 -7 2 -19 0 -25z m-4227 10 c0 -7 3 -23 6
-35 5 -18 2 -23 -14 -23 -23 0 -35 24 -27 51 7 21 35 26 35 7z m1696 -25 c-10
-10 -19 5 -10 18 6 11 8 11 12 0 2 -7 1 -15 -2 -18z m2981 21 c-3 -3 -12 -4
-19 -1 -8 3 -5 6 6 6 11 1 17 -2 13 -5z m-387 -8 c0 -3 -4 -8 -10 -11 -5 -3
-10 -1 -10 4 0 6 5 11 10 11 6 0 10 -2 10 -4z m340 -63 c0 -38 -3 -85 -6 -105
l-6 -36 -62 -4 c-33 -2 -64 -2 -67 1 -8 7 6 185 16 200 3 6 33 11 66 11 l59 0
0 -67z m-1833 35 c-3 -8 -6 -5 -6 6 -1 11 2 17 5 13 3 -3 4 -12 1 -19z m220 0
c-3 -8 -6 -5 -6 6 -1 11 2 17 5 13 3 -3 4 -12 1 -19z m-1370 -50 c-2 -13 -4
-3 -4 22 0 25 2 35 4 23 2 -13 2 -33 0 -45z m63 22 c0 -13 -40 -43 -48 -36 -4
4 2 14 12 22 17 12 17 14 3 20 -10 3 -17 13 -17 20 0 12 4 12 25 -2 14 -9 25
-20 25 -24z m3010 24 c0 -2 -7 -4 -15 -4 -8 0 -15 4 -15 10 0 5 7 7 15 4 8 -4
15 -8 15 -10z m-5923 -10 c-3 -3 -12 -4 -19 -1 -8 3 -5 6 6 6 11 1 17 -2 13
-5z m4220 -26 c-3 -8 -6 -5 -6 6 -1 11 2 17 5 13 3 -3 4 -12 1 -19z m-3020
-20 c-3 -7 -5 -2 -5 12 0 14 2 19 5 13 2 -7 2 -19 0 -25z m2407 17 c-4 -8 -8
-15 -10 -15 -2 0 -4 7 -4 15 0 8 4 15 10 15 5 0 7 -7 4 -15z m1156 5 c0 -5 -4
-10 -10 -10 -5 0 -10 5 -10 10 0 6 5 10 10 10 6 0 10 -4 10 -10z m1170 1 c0
-17 -15 -19 -35 -5 -18 13 -18 14 8 14 15 0 27 -4 27 -9z m-65 -11 c-3 -5 -10
-10 -16 -10 -5 0 -9 5 -9 10 0 6 7 10 16 10 8 0 12 -4 9 -10z m-3225 -10 c0
-6 -31 -10 -74 -10 -41 0 -81 -3 -90 -6 -17 -7 -22 -44 -6 -44 6 0 10 -38 10
-95 0 -55 -4 -95 -10 -95 -6 0 -11 -75 -12 -192 -3 -174 -5 -193 -20 -196 -17
-3 -18 17 -18 317 l0 320 73 4 c39 1 89 4 110 5 20 1 37 -2 37 -8z m-1448 -27
c23 -21 23 -36 -2 -58 -24 -22 -38 -14 -15 9 14 14 14 18 -1 41 -19 28 -9 33
18 8z m3025 -5 c-3 -8 -6 -5 -6 6 -1 11 2 17 5 13 3 -3 4 -12 1 -19z m763 12
c0 -5 -4 -10 -10 -10 -5 0 -10 5 -10 10 0 6 5 10 10 10 6 0 10 -4 10 -10z
m205 0 c-3 -5 -12 -10 -20 -10 -8 0 -17 5 -20 10 -4 6 5 10 20 10 15 0 24 -4
20 -10z m-129 -47 c-10 -10 -19 5 -10 18 6 11 8 11 12 0 2 -7 1 -15 -2 -18z
m134 2 c0 -8 -5 -15 -11 -15 -6 0 -17 7 -25 15 -14 13 -13 15 10 15 16 0 26
-6 26 -15z m-60 -5 c0 -5 -9 -10 -20 -10 -11 0 -20 5 -20 10 0 6 9 10 20 10
11 0 20 -4 20 -10z m-1148 -37 c6 -42 1 -54 -11 -34 -6 9 -10 7 -14 -8 -3 -12
0 -19 6 -18 6 1 13 -8 15 -20 3 -20 -1 -23 -27 -23 -18 0 -35 7 -41 18 -9 13
-10 14 -7 1 4 -13 -1 -15 -24 -13 -28 4 -29 2 -28 -39 2 -30 3 -34 6 -14 5 33
20 36 26 5 4 -20 4 -19 6 5 0 15 6 27 11 27 9 0 14 -14 11 -32 -2 -16 18 -7
22 10 3 14 6 13 15 -8 11 -25 11 -25 11 -2 2 42 18 13 25 -42 9 -83 7 -86 -85
-86 l-79 0 0 28 c0 15 -4 22 -8 16 -4 -6 -30 -11 -58 -13 -42 -2 -53 1 -59 16
-7 17 -8 17 -15 -2 -8 -18 -9 -18 -10 5 -1 14 -4 19 -7 13 -2 -7 -9 -13 -15
-13 -6 0 -6 6 2 15 6 8 9 19 5 25 -3 5 -3 16 2 23 4 6 8 17 8 22 0 6 11 11 25
11 159 7 144 -2 155 96 7 63 10 65 86 67 47 1 47 1 51 -36z m-382 17 c0 -5 -7
-10 -15 -10 -8 0 -15 5 -15 10 0 6 7 10 15 10 8 0 15 -4 15 -10z m1888 -22 c3
-13 -3 -18 -22 -18 -20 0 -26 5 -26 21 0 15 5 20 22 17 13 -2 24 -11 26 -20z
m-1383 -8 c-3 -5 -15 -10 -26 -10 -10 0 -19 5 -19 10 0 6 12 10 26 10 14 0 23
-4 19 -10z m862 -22 c-3 -7 -5 -2 -5 12 0 14 2 19 5 13 2 -7 2 -19 0 -25z m33
12 c0 -11 -4 -20 -10 -20 -5 0 -10 9 -10 20 0 11 5 20 10 20 6 0 10 -9 10 -20z
m30 0 c0 -11 -4 -20 -10 -20 -5 0 -10 9 -10 20 0 11 5 20 10 20 6 0 10 -9 10
-20z m490 -20 c0 -5 -9 -9 -20 -7 -31 5 -36 17 -7 17 15 0 27 -4 27 -10z m174
1 c7 -11 -116 -24 -140 -14 -17 6 -16 8 6 14 37 10 128 10 134 0z m-2054 -35
c-14 -14 -24 0 -16 21 6 15 8 15 16 3 6 -9 5 -19 0 -24z m1270 19 c0 -10 -11
-15 -35 -15 -24 0 -35 5 -35 15 0 10 11 15 35 15 24 0 35 -5 35 -15z m537 9
c-3 -3 -12 -4 -19 -1 -8 3 -5 6 6 6 11 1 17 -2 13 -5z m-1327 -8 c0 -2 -13 -6
-30 -8 -16 -3 -30 -1 -30 4 0 4 14 8 30 8 17 0 30 -2 30 -4z m-88 -28 c-9 -9
-15 -9 -24 0 -9 9 -7 12 12 12 19 0 21 -3 12 -12z m78 2 c0 -5 -7 -10 -15 -10
-8 0 -15 5 -15 10 0 6 7 10 15 10 8 0 15 -4 15 -10z m270 -32 c0 -4 -19 -8
-42 -8 l-41 0 23 25 c22 23 25 24 42 8 10 -9 18 -20 18 -25z m-2055 6 c-15 -8
-34 -14 -41 -14 -8 0 -14 -4 -14 -10 0 -5 -25 -8 -55 -7 -30 2 -55 -1 -55 -5
0 -4 25 -8 55 -8 l55 0 -1 -127 c0 -71 -3 -146 -7 -168 l-7 -40 -83 -3 c-83
-3 -98 -12 -70 -40 6 -6 10 -14 7 -16 -7 -7 -227 -11 -234 -4 -3 3 31 9 77 13
101 8 118 12 118 31 0 8 4 14 10 14 5 0 11 52 12 123 2 87 6 121 15 120 7 -2
14 21 18 62 4 36 12 68 18 72 10 6 101 17 175 20 l34 1 -27 -14z m85 -8 c0 -2
-18 -6 -40 -8 -22 -2 -40 0 -40 4 0 5 18 8 40 8 22 0 40 -2 40 -4z m2620 -6
c0 -5 -2 -10 -4 -10 -3 0 -8 5 -11 10 -3 6 -1 10 4 10 6 0 11 -4 11 -10z
m-5620 -14 c0 -7 -9 -16 -20 -19 -25 -6 -26 1 -2 19 22 17 22 17 22 0z m3380
4 c0 -5 -7 -10 -15 -10 -8 0 -15 5 -15 10 0 6 7 10 15 10 8 0 15 -4 15 -10z
m840 -4 c0 -3 -4 -8 -10 -11 -5 -3 -10 -1 -10 4 0 6 5 11 10 11 6 0 10 -2 10
-4z m-2220 -16 c0 -5 -8 -10 -17 -10 -15 0 -16 2 -3 10 19 12 20 12 20 0z
m-1970 -10 c0 -5 -2 -10 -4 -10 -3 0 -8 5 -11 10 -3 6 -1 10 4 10 6 0 11 -4
11 -10z m2960 -11 c0 -6 -18 -9 -40 -7 -37 2 -47 7 -35 19 8 9 75 -3 75 -12z
m2240 11 c0 -5 -4 -10 -10 -10 -5 0 -10 5 -10 10 0 6 5 10 10 10 6 0 10 -4 10
-10z m-2333 -6 c-3 -3 -12 -4 -19 -1 -8 3 -5 6 6 6 11 1 17 -2 13 -5z m427
-26 c-3 -11 -7 -28 -8 -36 -2 -12 -16 -18 -44 -20 -37 -3 -42 -1 -42 18 0 11
6 20 13 19 6 -1 24 -1 40 0 22 1 27 6 27 27 0 15 4 23 10 19 6 -4 8 -16 4 -27z
m1721 22 c3 -5 1 -10 -4 -10 -6 0 -11 5 -11 10 0 6 2 10 4 10 3 0 8 -4 11 -10z
m-1640 -30 c0 -21 -5 -26 -32 -28 -27 -3 -33 0 -33 15 0 26 21 44 45 41 14 -2
20 -11 20 -28z m815 20 c0 -5 -5 -10 -11 -10 -5 0 -7 5 -4 10 3 6 8 10 11 10
2 0 4 -4 4 -10z m888 3 c-10 -2 -26 -2 -35 0 -10 3 -2 5 17 5 19 0 27 -2 18
-5z m-1602 -59 c-3 -8 -17 -14 -31 -14 -21 0 -25 5 -25 29 0 25 4 30 28 33 28
3 40 -17 28 -48z m-3526 36 c0 -5 -5 -10 -11 -10 -5 0 -7 5 -4 10 3 6 8 10 11
10 2 0 4 -4 4 -10z m2935 0 c3 -5 0 -10 -7 -10 -10 0 -10 -2 1 -9 10 -7 7 -9
-12 -8 -28 2 -38 17 -11 17 8 0 12 5 9 10 -3 6 -2 10 4 10 5 0 13 -4 16 -10z
m1296 -23 c-13 -13 -26 -3 -16 12 3 6 11 8 17 5 6 -4 6 -10 -1 -17z m-4201 -8
c0 -6 -4 -7 -10 -4 -5 3 -10 11 -10 16 0 6 5 7 10 4 6 -3 10 -11 10 -16z
m2990 -1 c0 -26 -18 -41 -36 -33 -11 5 -22 7 -26 7 -10 -2 -10 2 -2 22 7 19
64 22 64 4z m-80 -20 c0 -12 -17 -18 -34 -12 -25 10 -19 24 9 22 14 -1 25 -6
25 -10z m147 -180 c-2 -35 -3 -9 -3 57 0 66 1 94 3 63 2 -32 2 -86 0 -120z
m430 158 c-3 -8 0 -17 7 -19 10 -4 12 1 9 14 -3 10 0 19 6 19 6 0 11 -9 11
-20 0 -19 4 -20 50 -14 34 5 50 3 50 -5 0 -7 -33 -11 -102 -10 -57 0 -97 3
-90 6 6 2 12 13 12 24 0 14 7 19 26 19 18 0 25 -4 21 -14z m188 4 c3 -5 -1
-10 -10 -10 -9 0 -13 5 -10 10 3 6 8 10 10 10 2 0 7 -4 10 -10z m50 0 c3 -5
-3 -10 -15 -10 -12 0 -18 5 -15 10 3 6 10 10 15 10 5 0 12 -4 15 -10z m-1526
-52 c1 -10 -3 -18 -9 -18 -5 0 -10 17 -9 38 0 30 2 33 9 17 5 -11 9 -28 9 -37z
m46 29 c-3 -12 -10 -45 -14 -72 l-8 -50 -7 38 c-11 48 0 107 20 107 10 0 13
-7 9 -23z m145 3 c0 -11 -2 -20 -4 -20 -2 0 -6 9 -9 20 -3 11 -1 20 4 20 5 0
9 -9 9 -20z m1330 -16 c0 -2 -15 -4 -32 -3 -27 0 -29 2 -13 8 18 8 45 4 45 -5z
m340 -4 c0 -5 -4 -10 -10 -10 -5 0 -10 5 -10 10 0 6 5 10 10 10 6 0 10 -4 10
-10z m438 -17 c-10 -2 -28 -2 -40 0 -13 2 -5 4 17 4 22 1 32 -1 23 -4z m125 0
c-7 -2 -19 -2 -25 0 -7 3 -2 5 12 5 14 0 19 -2 13 -5z m-2413 -99 c0 -13 -4
-24 -10 -24 -5 0 -10 14 -10 31 0 17 4 28 10 24 6 -3 10 -17 10 -31z m-292
-42 c-2 -13 5 -17 26 -17 16 0 31 -6 34 -13 3 -11 -6 -12 -44 -6 -27 3 -50 8
-52 9 -1 1 3 14 9 28 13 28 31 27 27 -1z m-3428 9 c0 -13 -38 -21 -90 -20
l-45 2 60 12 c78 17 75 16 75 6z m83 -8 c-7 -2 -19 -2 -25 0 -7 3 -2 5 12 5
14 0 19 -2 13 -5z m3507 -9 c0 -2 -12 -4 -26 -4 -14 0 -23 4 -20 9 6 8 46 4
46 -5z m818 9 c-10 -2 -26 -2 -35 0 -10 3 -2 5 17 5 19 0 27 -2 18 -5z m-723
-13 c3 -5 1 -10 -4 -10 -6 0 -11 5 -11 10 0 6 2 10 4 10 3 0 8 -4 11 -10z m95
0 c0 -5 -5 -10 -11 -10 -5 0 -7 5 -4 10 3 6 8 10 11 10 2 0 4 -4 4 -10z
m-4007 -7 c-7 -2 -19 -2 -25 0 -7 3 -2 5 12 5 14 0 19 -2 13 -5z m3767 -13 c0
-5 -4 -10 -10 -10 -5 0 -10 5 -10 10 0 6 5 10 10 10 6 0 10 -4 10 -10z m43 3
c-7 -2 -19 -2 -25 0 -7 3 -2 5 12 5 14 0 19 -2 13 -5z m54 -9 c-3 -3 -12 -4
-19 -1 -8 3 -5 6 6 6 11 1 17 -2 13 -5z m73 -3 c0 -13 -29 -35 -37 -27 -3 3
-1 6 6 6 8 0 11 7 7 15 -3 9 0 15 9 15 8 0 15 -4 15 -9z m550 5 c0 -9 -39 -13
-51 -5 -10 6 -4 9 19 9 17 0 32 -2 32 -4z m347 -2 c-3 -3 -12 -4 -19 -1 -8 3
-5 6 6 6 11 1 17 -2 13 -5z m-986 -29 c27 -11 29 -14 12 -15 -28 0 -53 10 -53
21 0 12 2 12 41 -6z m209 7 c0 -12 -30 -52 -39 -52 -4 0 -6 14 -3 30 3 21 10
30 23 30 11 0 19 -3 19 -8z m101 -2 c9 0 19 -9 22 -20 4 -15 0 -20 -14 -20
-12 0 -16 5 -13 15 6 15 -12 20 -63 15 -13 -1 -23 4 -23 11 0 8 12 10 38 5 20
-3 44 -6 53 -6z m456 4 c-3 -3 -12 -4 -19 -1 -8 3 -5 6 6 6 11 1 17 -2 13 -5z
m-617 -14 c0 -5 -2 -10 -4 -10 -3 0 -8 5 -11 10 -3 6 -1 10 4 10 6 0 11 -4 11
-10z m-307 -7 c-7 -2 -19 -2 -25 0 -7 3 -2 5 12 5 14 0 19 -2 13 -5z m95 -10
c-10 -2 -26 -2 -35 0 -10 3 -2 5 17 5 19 0 27 -2 18 -5z m292 -3 c0 -5 -5 -10
-11 -10 -5 0 -7 5 -4 10 3 6 8 10 11 10 2 0 4 -4 4 -10z m610 -8 c85 -7 85 -7
-65 -12 -167 -6 -225 -2 -204 11 17 11 155 11 269 1z m-570 -16 c0 -2 -18 -6
-40 -8 -22 -2 -40 0 -40 4 0 5 18 8 40 8 22 0 40 -2 40 -4z m-2060 -246 c0 -5
-5 -10 -11 -10 -5 0 -7 5 -4 10 3 6 8 10 11 10 2 0 4 -4 4 -10z m355 -78 c-3
-3 -11 0 -18 7 -9 10 -8 11 6 5 10 -3 15 -9 12 -12z m685 -104 c0 -6 -7 -7
-16 -4 -9 3 -18 6 -20 6 -3 0 -3 4 1 10 7 11 35 2 35 -12z m87 6 c-3 -3 -12
-4 -19 -1 -8 3 -5 6 6 6 11 1 17 -2 13 -5z"/>
<path d="M3756 4679 c-38 -54 -5 -110 76 -129 61 -15 78 -25 78 -51 0 -44 -71
-44 -102 0 -13 19 -78 42 -78 28 0 -21 29 -61 53 -74 41 -21 126 -27 156 -11
30 16 43 58 27 89 -13 27 -44 45 -103 59 -48 12 -65 42 -40 68 13 13 20 13 46
2 17 -6 33 -21 36 -31 4 -13 16 -19 35 -19 26 0 28 2 21 22 -14 40 -56 62
-125 66 -57 4 -65 2 -80 -19z"/>
<path d="M4027 4538 l2 -123 25 -3 c25 -3 26 -1 26 48 0 62 13 90 43 90 37 0
47 -19 47 -92 0 -37 4 -68 9 -68 5 0 16 -3 25 -6 14 -5 16 5 16 78 0 71 -3 88
-19 102 -22 20 -52 23 -93 12 l-28 -8 6 46 7 46 -34 0 -34 0 2 -122z"/>
<path d="M3285 4571 c-27 -10 -102 -42 -165 -71 -63 -29 -167 -76 -230 -105
-158 -72 -831 -380 -1207 -554 -214 -98 -455 -207 -510 -231 -29 -12 -53 -28
-53 -35 0 -7 -8 -11 -17 -9 -10 3 -63 -16 -118 -41 -55 -26 -133 -60 -172 -77
-53 -22 -73 -36 -73 -49 0 -11 2 -19 4 -19 4 0 297 125 351 150 22 10 83 36
135 58 52 22 176 77 275 122 99 45 214 95 255 112 41 16 80 33 85 38 17 13
178 82 229 97 26 8 107 42 180 75 72 33 203 89 290 125 88 35 242 102 343 149
101 46 186 84 189 84 3 0 26 9 51 21 88 40 196 81 228 86 17 3 78 -4 135 -16
143 -29 148 -29 156 14 3 20 4 38 1 41 -8 9 -249 54 -282 53 -16 0 -52 -9 -80
-18z m-788 -393 c-3 -8 -6 -5 -6 6 -1 11 2 17 5 13 3 -3 4 -12 1 -19z"/>
<path d="M4512 4453 l3 -118 28 -3 28 -3 -3 118 -3 118 -28 3 -28 3 3 -118z"/>
<path d="M4628 4430 l3 -120 25 0 25 0 -3 118 c-3 117 -3 117 -28 120 l-25 3
3 -121z"/>
<path d="M4290 4520 c-26 -26 -26 -85 0 -127 24 -40 87 -61 130 -43 39 16 47
40 14 40 -14 0 -34 -5 -45 -10 -15 -9 -24 -6 -44 14 -42 42 -33 48 50 41 41
-4 75 -4 75 -1 0 21 -31 76 -51 90 -33 23 -104 21 -129 -4z m113 -28 c9 -8 17
-19 17 -24 0 -11 -72 -10 -90 2 -13 9 -12 13 9 30 23 20 32 19 64 -8z"/>
<path d="M3420 4341 c-36 -11 -93 -42 -87 -47 5 -6 117 42 117 50 0 4 -1 6 -2
5 -2 0 -14 -4 -28 -8z"/>
<path d="M3521 4326 c-10 -12 -8 -13 8 -9 12 3 21 9 21 14 0 14 -16 11 -29 -5z"/>
<path d="M3355 4260 c-13 -6 -15 -9 -5 -9 8 0 22 4 30 9 18 12 2 12 -25 0z"/>
<path d="M4258 4213 c7 -3 16 -2 19 1 4 3 -2 6 -13 5 -11 0 -14 -3 -6 -6z"/>
<path d="M4320 4210 c-12 -8 -11 -10 8 -10 12 0 22 5 22 10 0 13 -11 13 -30 0z"/>
<path d="M4185 4179 c-33 -4 -80 -14 -105 -23 l-45 -15 35 0 c33 -1 178 33
188 44 3 3 1 4 -4 4 -5 -1 -36 -5 -69 -10z"/>
<path d="M4270 4164 c-31 -11 -32 -13 -10 -13 14 0 32 3 40 9 24 15 7 18 -30
4z"/>
<path d="M4198 4113 c7 -3 16 -2 19 1 4 3 -2 6 -13 5 -11 0 -14 -3 -6 -6z"/>
<path d="M4145 4060 c-13 -6 -15 -9 -5 -9 8 0 22 4 30 9 18 12 2 12 -25 0z"/>
<path d="M4000 3939 c0 -5 5 -7 10 -4 6 3 10 8 10 11 0 2 -4 4 -10 4 -5 0 -10
-5 -10 -11z"/>
<path d="M3728 3842 l-28 -3 1 -82 c0 -45 3 -75 6 -67 4 8 14 22 23 30 9 8 20
25 24 38 4 12 11 20 15 18 4 -3 15 4 25 16 15 17 20 18 27 7 7 -11 9 -9 9 8 0
12 7 26 16 31 16 9 -64 12 -118 4z"/>
<path d="M4105 3630 c-3 -5 -1 -10 4 -10 6 0 11 5 11 10 0 6 -2 10 -4 10 -3 0
-8 -4 -11 -10z"/>
<path d="M3415 3280 c-3 -5 -1 -10 4 -10 6 0 11 5 11 10 0 6 -2 10 -4 10 -3 0
-8 -4 -11 -10z"/>
<path d="M3430 3250 c8 -5 30 -10 49 -10 45 0 37 6 -19 14 -31 4 -40 3 -30 -4z"/>
<path d="M4073 3042 c-23 -3 -33 -32 -12 -32 5 0 7 5 3 12 -5 8 -2 9 9 5 9 -3
19 -2 23 4 8 13 4 16 -23 11z"/>
<path d="M1220 3005 l-5 -40 -185 -5 -185 -6 145 -2 c98 -2 140 -5 130 -12 -8
-5 -55 -11 -105 -12 l-90 -2 83 -3 82 -4 0 -44 0 -45 -125 0 c-81 0 -125 -4
-125 -11 0 -6 42 -9 123 -8 100 1 123 -1 125 -13 2 -12 -14 -16 -74 -21 -42
-4 -99 -7 -126 -7 -53 0 -64 -15 -18 -25 25 -6 28 -9 20 -25 -6 -10 -10 -28
-10 -39 0 -10 -6 -22 -12 -24 -7 -3 10 -6 39 -6 28 -1 55 -6 59 -12 12 -20 24
13 24 69 0 39 4 54 16 59 9 3 20 0 25 -8 7 -11 9 -11 9 -1 0 11 21 12 103 8
60 -4 94 -3 82 2 -28 13 103 21 304 19 162 -2 163 -2 172 21 21 54 28 52 -231
52 l-239 0 -3 93 c-2 58 -5 77 -8 52z m178 -174 c10 -6 9 -10 -7 -14 -14 -3
-21 0 -21 9 0 16 9 18 28 5z m172 -1 c11 -7 -1 -9 -40 -9 -50 2 -52 2 -20 9
19 4 37 8 40 9 3 0 12 -4 20 -9z m-123 -6 c-3 -3 -12 -4 -19 -1 -8 3 -5 6 6 6
11 1 17 -2 13 -5z"/>
<path d="M3890 3031 c0 -8 -7 -11 -15 -7 -13 5 -14 2 -4 -16 l12 -22 9 23 c5
13 6 26 3 29 -3 3 -5 0 -5 -7z"/>
<path d="M3928 3033 c10 -4 10 -8 0 -21 -12 -15 -11 -16 5 -3 9 7 17 17 17 22
0 5 -8 9 -17 8 -12 0 -13 -2 -5 -6z"/>
<path d="M3960 3014 c0 -9 5 -14 12 -12 18 6 21 28 4 28 -9 0 -16 -7 -16 -16z"/>
<path d="M4000 3021 c0 -10 26 -9 36 2 4 4 -2 7 -14 7 -12 0 -22 -4 -22 -9z"/>
<path d="M1310 2960 c0 -11 7 -23 15 -26 23 -9 18 -26 -5 -19 -12 4 -20 2 -20
-5 0 -6 12 -10 27 -8 34 4 43 33 14 43 -26 8 -27 22 -3 28 13 4 11 5 -5 6 -17
1 -23 -5 -23 -19z"/>
<path d="M1458 2940 c-2 -22 0 -40 4 -40 5 0 8 18 8 40 0 22 -2 40 -4 40 -2 0
-6 -18 -8 -40z"/>
<path d="M1627 2953 c-2 -5 -1 -19 4 -33 7 -23 7 -23 8 8 1 31 -3 40 -12 25z"/>
<path d="M1720 2940 c0 -20 6 -20 473 -18 259 1 430 4 380 5 -96 4 -126 19
-50 26 23 2 -148 4 -380 5 -417 2 -423 2 -423 -18z m727 4 c-3 -3 -12 -4 -19
-1 -8 3 -5 6 6 6 11 1 17 -2 13 -5z"/>
<path d="M1380 2925 c0 -14 4 -25 9 -25 5 0 7 9 4 20 -6 22 22 29 30 8 3 -8 6
-6 6 5 1 12 -7 17 -24 17 -20 0 -25 -5 -25 -25z"/>
<path d="M1497 2943 c-11 -10 -8 -43 3 -43 6 0 10 11 10 25 0 26 -2 29 -13 18z"/>
<path d="M1525 2940 c3 -5 11 -10 16 -10 6 0 7 5 4 10 -3 6 -11 10 -16 10 -6
0 -7 -4 -4 -10z"/>
<path d="M1568 2938 c-8 -20 2 -38 20 -37 11 0 12 2 5 6 -7 2 -13 11 -13 18 0
7 6 16 13 18 7 4 6 6 -4 6 -9 1 -19 -5 -21 -11z"/>
<path d="M2853 2943 c20 -2 54 -2 75 0 20 2 3 4 -38 4 -41 0 -58 -2 -37 -4z"/>
<path d="M2698 2923 c7 -3 16 -2 19 1 4 3 -2 6 -13 5 -11 0 -14 -3 -6 -6z"/>
<path d="M4112 2862 c-30 -2 -50 -7 -47 -13 4 -5 15 -9 26 -9 10 0 19 -4 19
-8 0 -16 -35 -9 -51 10 -9 10 -18 18 -21 18 -3 0 -6 -21 -7 -48 l-1 -47 45 0
c40 1 45 -2 55 -29 5 -16 10 -30 10 -32 0 -1 -24 -1 -52 -1 -37 1 -53 -2 -52
-11 1 -6 2 -62 3 -124 0 -61 4 -109 7 -105 4 3 6 52 5 109 l-2 103 25 -30 c13
-16 22 -33 19 -37 -2 -5 7 -8 21 -8 24 0 26 -4 27 -42 1 -24 6 1 11 56 7 63 7
101 0 105 -5 3 -13 17 -17 30 -6 20 -4 23 9 18 9 -4 16 -2 16 3 0 6 -4 10 -10
10 -5 0 -10 7 -10 16 0 8 4 13 9 10 5 -3 11 9 14 27 2 17 4 32 3 32 0 0 -25
-1 -54 -3z m-52 -172 c0 -5 -4 -10 -10 -10 -5 0 -10 5 -10 10 0 6 5 10 10 10
6 0 10 -4 10 -10z"/>
<path d="M2505 2840 c-188 -5 -175 -6 115 -6 179 0 309 1 290 2 -81 8 -208 9
-405 4z"/>
<path d="M3010 2840 c0 -5 5 -10 10 -10 6 0 10 5 10 10 0 6 -4 10 -10 10 -5 0
-10 -4 -10 -10z"/>
<path d="M3885 2841 c3 -5 1 -12 -4 -16 -12 -7 -10 -65 2 -65 4 0 7 13 7 29 0
16 3 36 6 45 3 9 1 16 -6 16 -6 0 -9 -4 -5 -9z"/>
<path d="M1760 2830 c-25 -3 68 -4 205 -2 138 2 255 5 260 7 16 6 -416 1 -465
-5z"/>
<path d="M3423 2803 c15 -2 37 -2 50 0 12 2 0 4 -28 4 -27 0 -38 -2 -22 -4z"/>
<path d="M2765 2790 c-4 -7 3 -8 22 -4 38 9 42 14 10 14 -14 0 -29 -5 -32 -10z"/>
<path d="M2038 2783 c7 -3 16 -2 19 1 4 3 -2 6 -13 5 -11 0 -14 -3 -6 -6z"/>
<path d="M2088 2783 c6 -2 18 -2 25 0 6 3 1 5 -13 5 -14 0 -19 -2 -12 -5z"/>
<path d="M2188 2783 c29 -2 74 -2 100 0 26 2 2 3 -53 3 -55 0 -76 -1 -47 -3z"/>
<path d="M2348 2783 c6 -2 18 -2 25 0 6 3 1 5 -13 5 -14 0 -19 -2 -12 -5z"/>
<path d="M1705 2770 c3 -5 24 -10 46 -10 21 0 39 5 39 10 0 6 -21 10 -46 10
-27 0 -43 -4 -39 -10z"/>
<path d="M2653 2725 c0 -22 2 -30 4 -17 2 12 2 30 0 40 -3 9 -5 -1 -4 -23z"/>
<path d="M2773 2737 c-7 -12 -7 -376 0 -383 3 -4 55 0 114 9 l108 15 -97 1
c-54 0 -98 5 -98 9 0 10 137 42 178 42 26 0 28 3 24 33 l-4 33 -46 -23 c-62
-31 -152 -29 -152 4 0 10 4 11 19 3 30 -16 72 -13 65 4 -4 10 8 22 35 35 22
12 45 30 51 40 15 30 12 38 -6 13 -19 -27 -38 -29 -29 -2 11 34 -5 22 -21 -15
-16 -38 -37 -45 -53 -17 -9 15 -10 15 -11 -5 0 -26 0 -26 -35 -13 -23 9 -26
14 -20 43 8 39 34 63 83 77 44 12 115 3 105 -14 -4 -7 -3 -8 5 -1 5 6 12 31
14 58 l3 47 -55 1 c-30 0 -81 4 -113 8 -32 4 -61 3 -64 -2z m207 -47 c0 -5
-18 -10 -41 -10 -24 0 -38 4 -34 10 3 6 22 10 41 10 19 0 34 -4 34 -10z m-107
-7 c-7 -2 -19 -2 -25 0 -7 3 -2 5 12 5 14 0 19 -2 13 -5z m-13 -23 c0 -5 -4
-10 -9 -10 -6 0 -13 5 -16 10 -3 6 1 10 9 10 9 0 16 -4 16 -10z m43 3 c-7 -2
-19 -2 -25 0 -7 3 -2 5 12 5 14 0 19 -2 13 -5z m60 0 c-7 -2 -21 -2 -30 0 -10
3 -4 5 12 5 17 0 24 -2 18 -5z"/>
<path d="M4063 2742 c-49 -5 -40 -22 12 -22 31 0 45 4 45 13 0 14 -2 14 -57 9z"/>
<path d="M3870 2726 c0 -9 5 -16 10 -16 6 0 10 4 10 9 0 6 -4 13 -10 16 -5 3
-10 -1 -10 -9z"/>
<path d="M3873 2645 c0 -33 2 -45 4 -27 2 18 2 45 0 60 -2 15 -4 0 -4 -33z"/>
<path d="M3259 2683 c-1 -5 -1 -12 0 -17 1 -5 -4 -13 -11 -17 -11 -7 -10 -9 1
-9 10 0 12 -9 7 -34 -4 -20 -2 -37 4 -41 6 -4 10 17 10 59 0 36 -2 66 -5 66
-3 0 -6 -3 -6 -7z"/>
<path d="M1108 2643 c7 -3 16 -2 19 1 4 3 -2 6 -13 5 -11 0 -14 -3 -6 -6z"/>
<path d="M1625 2640 c-3 -5 -2 -10 4 -10 5 0 13 5 16 10 3 6 2 10 -4 10 -5 0
-13 -4 -16 -10z"/>
<path d="M3200 2640 c0 -5 5 -10 10 -10 6 0 10 5 10 10 0 6 -4 10 -10 10 -5 0
-10 -4 -10 -10z"/>
<path d="M1058 2633 c7 -3 16 -2 19 1 4 3 -2 6 -13 5 -11 0 -14 -3 -6 -6z"/>
<path d="M1665 2630 c3 -5 8 -10 11 -10 2 0 4 5 4 10 0 6 -5 10 -11 10 -5 0
-7 -4 -4 -10z"/>
<path d="M1797 2634 c-4 -4 -5 -10 -2 -14 6 -9 65 0 65 11 0 10 -53 12 -63 3z"/>
<path d="M2203 2633 l-53 -4 0 -45 c0 -43 1 -44 17 -29 9 10 17 26 18 38 2 28
25 35 25 7 0 -12 7 -28 15 -37 8 -8 13 -19 10 -24 -4 -5 1 -6 9 -3 9 3 16 2
16 -4 0 -6 -5 -12 -12 -14 -6 -2 -8 -10 -4 -16 4 -7 11 -10 16 -7 10 6 12 146
2 143 -4 -1 -31 -3 -59 -5z m-28 -34 c-6 -33 -15 -36 -15 -6 0 15 4 27 9 27 6
0 8 -10 6 -21z"/>
<path d="M2287 2624 c3 -8 9 -11 14 -8 5 3 9 -2 9 -11 0 -9 5 -13 10 -10 6 3
10 14 10 24 0 13 -7 19 -24 19 -17 0 -23 -5 -19 -14z"/>
<path d="M2905 2615 c0 -14 2 -25 6 -25 12 0 27 24 22 36 -9 23 -28 16 -28
-11z"/>
<path d="M3432 2628 c-8 -10 -9 -19 -3 -22 5 -4 8 -24 6 -46 -4 -37 -2 -40 20
-40 17 0 25 6 26 18 0 9 2 27 3 40 2 13 -1 25 -6 28 -4 3 -8 -13 -8 -35 0 -62
-19 -49 -22 16 -3 48 -5 54 -16 41z"/>
<path d="M975 2620 c-11 -5 -32 -9 -47 -9 -25 -1 -28 -5 -28 -38 0 -20 3 -33
7 -30 11 11 32 -27 22 -39 -6 -8 -2 -10 15 -7 21 4 24 2 19 -16 -3 -12 -1 -21
3 -22 5 0 24 -2 42 -5 18 -2 32 1 32 7 0 5 4 8 9 4 5 -3 12 -1 16 5 3 5 -1 10
-10 10 -11 0 -15 7 -13 23 2 12 -1 22 -7 22 -5 0 -9 -3 -7 -7 1 -5 -2 -8 -8
-8 -5 0 -10 -5 -10 -11 0 -5 6 -7 13 -3 9 5 9 4 0 -6 -6 -7 -19 -10 -29 -6
-16 6 -16 8 0 25 16 17 15 18 -6 18 -55 1 -58 2 -58 33 0 22 5 30 18 30 10 0
36 9 58 20 34 17 36 19 14 19 -14 0 -34 -4 -45 -9z"/>
<path d="M3723 2575 c0 -33 2 -45 4 -27 2 18 2 45 0 60 -2 15 -4 0 -4 -33z"/>
<path d="M1075 2610 c-22 -6 -25 -8 -10 -10 11 -1 25 -1 30 0 6 2 37 6 70 10
l60 7 -60 0 c-33 1 -73 -3 -90 -7z"/>
<path d="M2838 2614 c-3 -3 -4 -13 -1 -23 3 -13 11 -17 24 -14 15 4 19 1 17
-17 -2 -13 3 -25 11 -28 10 -3 11 0 5 9 -5 8 -7 22 -6 32 2 9 -4 20 -12 23 -9
3 -13 10 -10 15 6 10 -19 13 -28 3z"/>
<path d="M840 2600 c0 -5 5 -10 10 -10 6 0 10 5 10 10 0 6 -4 10 -10 10 -5 0
-10 -4 -10 -10z"/>
<path d="M1238 2603 c6 -2 18 -2 25 0 6 3 1 5 -13 5 -14 0 -19 -2 -12 -5z"/>
<path d="M1390 2594 c0 -13 -10 -15 -57 -12 -49 2 -58 0 -61 -14 -2 -10 1 -18
7 -18 6 0 10 5 9 11 -2 6 3 14 11 17 8 3 11 0 7 -7 -5 -7 7 -11 38 -11 26 0
46 -5 49 -12 3 -7 6 4 6 25 1 20 -1 37 -4 37 -3 0 -5 -7 -5 -16z"/>
<path d="M1602 2580 c0 -19 2 -27 5 -17 2 9 2 25 0 35 -3 9 -5 1 -5 -18z"/>
<path d="M1957 2604 c-11 -11 -8 -46 3 -39 6 4 8 11 5 16 -3 5 1 6 9 3 19 -7
21 -20 4 -27 -10 -4 -10 -6 0 -6 7 -1 15 6 18 14 4 8 11 12 16 9 6 -4 8 2 6
12 -3 19 -47 32 -61 18z"/>
<path d="M2556 2602 c-2 -4 -1 -14 5 -22 7 -12 9 -10 9 8 0 23 -5 28 -14 14z"/>
<path d="M2513 2585 c-3 -9 -3 -19 1 -22 3 -4 6 1 6 10 0 8 6 18 13 20 9 4 9
6 -1 6 -7 1 -15 -6 -19 -14z"/>
<path d="M2602 2580 c0 -14 2 -19 5 -12 2 6 2 18 0 25 -3 6 -5 1 -5 -13z"/>
<path d="M2647 2593 c-11 -10 -8 -35 3 -28 6 4 8 10 5 15 -3 5 3 11 12 13 14
4 15 5 2 6 -9 0 -19 -2 -22 -6z"/>
<path d="M3290 2590 c0 -5 5 -10 10 -10 6 0 10 5 10 10 0 6 -4 10 -10 10 -5 0
-10 -4 -10 -10z"/>
<path d="M3350 2570 c0 -27 17 -40 32 -24 10 9 -3 42 -18 48 -10 4 -14 -3 -14
-24z"/>
<path d="M1100 2520 c-6 -75 -5 -88 5 -78 3 3 5 39 3 79 l-3 74 -5 -75z"/>
<path d="M3200 2580 c0 -5 5 -10 11 -10 5 0 7 5 4 10 -3 6 -8 10 -11 10 -2 0
-4 -4 -4 -10z"/>
<path d="M2305 2570 c-3 -6 1 -7 9 -4 18 7 21 14 7 14 -6 0 -13 -4 -16 -10z"/>
<path d="M2380 2568 c0 -4 13 -8 28 -8 15 0 34 -6 41 -12 10 -11 12 -9 9 6 -2
15 -12 20 -41 21 -20 0 -37 -3 -37 -7z"/>
<path d="M1083 2515 c0 -27 2 -38 4 -22 2 15 2 37 0 50 -2 12 -4 0 -4 -28z"/>
<path d="M1980 2544 c-46 -12 -42 -18 19 -28 27 -5 32 -3 27 10 -3 8 -2 12 4
9 6 -3 10 -2 10 4 0 17 -13 18 -60 5z"/>
<path d="M2186 2543 c-8 -27 -4 -83 6 -83 4 0 8 6 8 13 0 9 3 8 9 -2 5 -8 11
-9 15 -3 3 6 -3 14 -15 17 -14 5 -18 10 -10 14 19 12 24 61 7 61 -8 0 -17 -8
-20 -17z"/>
<path d="M2401 2534 c0 -11 3 -14 6 -6 3 7 2 16 -1 19 -3 4 -6 -2 -5 -13z"/>
<path d="M2494 2538 c-3 -4 19 -8 48 -7 57 1 55 5 -5 11 -21 2 -40 0 -43 -4z"/>
<path d="M1500 2532 c0 -5 18 -8 39 -8 35 1 41 -3 55 -32 10 -20 21 -30 27
-26 8 5 6 10 -5 16 -9 5 -16 17 -16 27 0 11 -7 22 -16 25 -23 9 -84 7 -84 -2z"/>
<path d="M2284 2525 c-3 -8 -4 -20 -2 -27 3 -7 7 -1 10 15 6 29 1 36 -8 12z"/>
<path d="M2316 2531 c-4 -5 1 -8 9 -7 21 3 31 16 12 16 -9 0 -18 -4 -21 -9z"/>
<path d="M840 2519 c-12 -8 -8 -9 14 -7 24 3 31 -2 40 -27 7 -18 18 -30 28
-30 10 0 17 5 16 10 -1 6 -8 9 -15 7 -7 -2 -13 6 -13 17 0 11 -9 25 -19 31
-24 12 -32 12 -51 -1z"/>
<path d="M1408 2523 c6 -2 18 -2 25 0 6 3 1 5 -13 5 -14 0 -19 -2 -12 -5z"/>
<path d="M3265 2520 c3 -5 14 -10 23 -10 15 0 15 2 2 10 -20 13 -33 13 -25 0z"/>
<path d="M4322 2473 c-1 -28 -6 -53 -11 -55 -5 -1 6 -11 24 -20 31 -16 32 -16
28 2 -4 15 2 19 34 23 33 3 31 4 -14 5 l-52 2 -4 48 -3 47 -2 -52z"/>
<path d="M1800 2488 c0 -19 2 -20 10 -8 13 19 13 30 0 30 -5 0 -10 -10 -10
-22z"/>
<path d="M2375 2500 c-10 -16 -2 -21 42 -27 28 -4 44 0 60 15 l23 19 -59 2
c-34 1 -62 -3 -66 -9z"/>
<path d="M1652 2485 c-7 -8 -8 -15 -3 -15 6 0 8 -7 5 -15 -4 -8 -1 -15 5 -15
6 0 11 14 11 30 0 34 0 34 -18 15z"/>
<path d="M1850 2490 c0 -5 5 -10 10 -10 6 0 10 5 10 10 0 6 -4 10 -10 10 -5 0
-10 -4 -10 -10z"/>
<path d="M1991 2491 c-1 -7 -7 -11 -16 -7 -10 4 -15 -1 -15 -15 0 -16 5 -20
27 -17 14 2 29 9 31 17 3 8 0 11 -6 7 -6 -3 -13 2 -15 11 -3 10 -5 12 -6 4z"/>
<path d="M4133 2445 c0 -33 2 -45 4 -27 2 18 2 45 0 60 -2 15 -4 0 -4 -33z"/>
<path d="M1450 2460 c0 -15 7 -20 25 -20 18 0 25 5 25 20 0 15 -7 20 -25 20
-18 0 -25 -5 -25 -20z"/>
<path d="M2318 2473 c7 -3 16 -2 19 1 4 3 -2 6 -13 5 -11 0 -14 -3 -6 -6z"/>
<path d="M840 2459 c0 -5 5 -7 10 -4 6 3 10 8 10 11 0 2 -4 4 -10 4 -5 0 -10
-5 -10 -11z"/>
<path d="M2055 2459 c7 -11 35 -12 35 -1 0 4 -9 8 -20 9 -11 1 -18 -2 -15 -8z"/>
<path d="M1050 2434 c0 -8 5 -12 10 -9 6 3 10 10 10 16 0 5 -4 9 -10 9 -5 0
-10 -7 -10 -16z"/>
<path d="M1180 2434 l-25 -14 31 2 c17 1 31 8 31 15 0 16 -5 15 -37 -3z"/>
<path d="M1232 2438 c2 -6 10 -14 18 -16 7 -3 10 0 6 7 -4 6 -3 11 3 11 5 0
13 -4 16 -10 3 -5 12 -10 18 -10 8 0 7 3 -2 9 -11 7 -11 9 0 14 8 3 -3 6 -24
6 -26 1 -37 -3 -35 -11z"/>
<path d="M1558 2443 c7 -3 16 -2 19 1 4 3 -2 6 -13 5 -11 0 -14 -3 -6 -6z"/>
<path d="M1805 2440 c3 -5 10 -10 16 -10 5 0 9 5 9 10 0 6 -7 10 -16 10 -8 0
-12 -4 -9 -10z"/>
<path d="M850 2429 c0 -5 5 -7 10 -4 6 3 10 8 10 11 0 2 -4 4 -10 4 -5 0 -10
-5 -10 -11z"/>
<path d="M878 2419 c-10 -10 -14 -19 -9 -19 6 0 13 5 17 11 4 8 9 7 15 -2 7
-11 9 -9 9 6 0 15 3 16 12 7 7 -7 16 -12 21 -12 5 0 2 7 -7 15 -19 20 -37 18
-58 -6z"/>
<path d="M966 2432 c-3 -6 -1 -14 5 -17 14 -9 20 -2 10 14 -6 8 -11 9 -15 3z"/>
<path d="M1618 2433 c7 -3 16 -2 19 1 4 3 -2 6 -13 5 -11 0 -14 -3 -6 -6z"/>
<path d="M3964 2425 c-3 -8 -4 -20 -1 -27 3 -7 6 -3 6 9 1 12 9 24 19 26 16 4
16 5 -1 6 -10 0 -20 -6 -23 -14z"/>
<path d="M4030 2431 c0 -5 -3 -17 -7 -27 -4 -11 -3 -15 5 -10 7 4 12 -6 15
-26 3 -23 4 -17 5 20 1 29 -2 52 -8 52 -5 0 -10 -4 -10 -9z"/>
<path d="M1318 2423 c7 -3 16 -2 19 1 4 3 -2 6 -13 5 -11 0 -14 -3 -6 -6z"/>
<path d="M1018 2413 c7 -3 16 -2 19 1 4 3 -2 6 -13 5 -11 0 -14 -3 -6 -6z"/>
<path d="M4220 2375 c0 -25 5 -45 10 -45 6 0 10 6 9 13 -3 27 2 46 17 61 14
15 13 16 -10 16 -24 0 -26 -3 -26 -45z"/>
<path d="M1728 2403 c12 -2 30 -2 40 0 9 3 -1 5 -23 4 -22 0 -30 -2 -17 -4z"/>
<path d="M3744 2395 c-3 -8 -4 -20 -2 -27 3 -7 7 -1 10 15 6 29 1 36 -8 12z"/>
<path d="M1430 2390 c0 -8 211 -2 220 6 2 3 -46 4 -108 3 -62 -1 -112 -5 -112
-9z"/>
<path d="M1248 2383 c-16 -2 -28 -9 -28 -14 0 -14 149 -7 155 8 4 13 -62 16
-127 6z"/>
<path d="M4398 2383 c12 -2 30 -2 40 0 9 3 -1 5 -23 4 -22 0 -30 -2 -17 -4z"/>
<path d="M940 2370 c-58 -3 -86 -7 -62 -8 23 -1 42 -6 42 -11 0 -10 133 -2
140 9 3 5 26 10 50 13 40 3 39 3 -10 3 -30 0 -102 -3 -160 -6z"/>
<path d="M3631 2364 c0 -11 3 -14 6 -6 3 7 2 16 -1 19 -3 4 -6 -2 -5 -13z"/>
<path d="M4123 2330 c0 -30 2 -43 4 -27 2 15 2 39 0 55 -2 15 -4 2 -4 -28z"/>
<path d="M3970 2355 c0 -8 4 -15 9 -15 5 0 14 7 21 15 10 13 9 15 -9 15 -12 0
-21 -6 -21 -15z"/>
<path d="M1080 2308 c0 -33 3 -39 12 -30 16 16 60 15 80 0 9 -7 19 -24 21 -38
2 -14 5 5 6 43 l1 67 -60 0 -60 0 0 -42z"/>
<path d="M1224 2341 c-15 -15 6 -18 75 -14 l79 6 5 -29 c4 -29 4 -29 6 4 1 24
-3 32 -16 33 -47 4 -145 4 -149 0z"/>
<path d="M1452 2341 c-10 -6 -10 -10 3 -21 13 -11 15 -9 15 9 0 24 0 24 -18
12z"/>
<path d="M1504 2320 c6 -33 -20 -70 -49 -70 -8 0 -15 -4 -15 -10 0 -5 7 -7 15
-4 10 4 15 0 15 -11 0 -15 1 -15 16 -1 19 20 19 20 21 -4 3 -35 24 -46 81 -42
37 3 52 8 52 18 0 11 -4 12 -19 4 -25 -13 -84 -13 -76 0 3 6 1 10 -4 10 -6 0
-11 9 -11 19 0 11 -4 23 -10 26 -16 10 -12 28 5 21 9 -3 25 4 37 16 19 19 22
19 30 4 11 -20 25 -20 46 1 16 15 15 16 -12 9 -27 -7 -28 -6 -15 11 8 10 19
21 24 25 6 4 -23 8 -64 8 l-73 0 6 -30z m59 3 c-7 -2 -21 -2 -30 0 -10 3 -4 5
12 5 17 0 24 -2 18 -5z"/>
<path d="M1000 2332 c0 -7 -17 -10 -41 -9 -23 1 -41 -2 -40 -8 1 -5 6 -10 11
-9 6 1 37 2 70 3 46 1 60 5 60 16 0 18 -17 20 -23 3 -3 -10 -7 -10 -20 1 -11
8 -17 9 -17 3z"/>
<path d="M1278 2313 c-49 -3 -58 -7 -58 -23 0 -17 6 -18 48 -13 26 3 49 10 50
15 2 5 9 4 17 -2 9 -8 14 -5 18 10 3 12 1 19 -6 18 -7 -1 -38 -3 -69 -5z"/>
<path d="M3480 2310 c-32 -10 69 -11 160 0 62 7 61 7 -35 7 -55 1 -111 -3
-125 -7z"/>
<path d="M957 2293 c-38 -3 -48 -8 -45 -21 3 -13 13 -16 53 -13 27 1 53 7 56
13 4 7 9 7 13 0 10 -17 -28 -32 -78 -32 l-46 0 0 -41 0 -41 50 4 c46 3 50 1
50 -20 0 -31 11 -33 110 -23 l85 8 -65 3 c-56 3 -59 4 -20 7 47 4 70 22 70 56
0 18 -5 19 -46 13 -32 -4 -43 -3 -38 6 5 7 0 9 -14 6 -21 -6 -21 -5 -4 20 16
25 16 26 -1 19 -10 -4 -17 -2 -17 6 0 9 -3 8 -9 -1 -7 -11 -9 -11 -14 1 -3 8
0 20 6 26 12 12 7 12 -96 4z m34 -91 c-10 -3 -10 -6 -1 -12 8 -5 7 -9 -4 -13
-11 -4 -16 -1 -16 12 0 22 10 32 23 24 7 -4 7 -8 -2 -11z m66 -4 c-3 -8 -6 -5
-6 6 -1 11 2 17 5 13 3 -3 4 -12 1 -19z"/>
<path d="M1440 2285 c0 -9 6 -12 15 -9 8 4 15 10 15 15 0 5 -7 9 -15 9 -8 0
-15 -7 -15 -15z"/>
<path d="M1273 2263 l-53 -4 0 -41 0 -41 38 7 c20 3 43 6 50 6 7 0 12 13 12
30 0 19 5 30 14 30 8 0 18 5 21 10 3 6 -2 9 -12 8 -10 -1 -42 -3 -70 -5z m-18
-33 c3 -5 -1 -10 -10 -10 -9 0 -13 5 -10 10 3 6 8 10 10 10 2 0 7 -4 10 -10z
m40 0 c-3 -5 -11 -10 -16 -10 -6 0 -7 5 -4 10 3 6 11 10 16 10 6 0 7 -4 4 -10z
m12 -26 c-3 -3 -12 -4 -19 -1 -8 3 -5 6 6 6 11 1 17 -2 13 -5z"/>
<path d="M3518 2263 c12 -2 32 -2 45 0 12 2 2 4 -23 4 -25 0 -35 -2 -22 -4z"/>
<path d="M3190 2240 l-45 -7 52 -1 c28 -1 55 3 58 8 7 11 4 11 -65 0z"/>
<path d="M1485 2180 c3 -5 13 -10 21 -10 8 0 12 5 9 10 -3 6 -13 10 -21 10 -8
0 -12 -4 -9 -10z"/>
<path d="M2253 2173 c9 -2 23 -2 30 0 6 3 -1 5 -18 5 -16 0 -22 -2 -12 -5z"/>
<path d="M1628 2163 c7 -3 16 -2 19 1 4 3 -2 6 -13 5 -11 0 -14 -3 -6 -6z"/>
<path d="M2047 2159 c-81 -7 -107 -13 -96 -23 5 -4 158 12 219 23 l45 9 -40
-1 c-22 0 -80 -3 -128 -8z"/>
<path d="M1228 2133 c7 -3 16 -2 19 1 4 3 -2 6 -13 5 -11 0 -14 -3 -6 -6z"/>
<path d="M1123 2073 c9 -2 25 -2 35 0 9 3 1 5 -18 5 -19 0 -27 -2 -17 -5z"/>
<path d="M6565 1800 c3 -5 8 -10 11 -10 2 0 4 5 4 10 0 6 -5 10 -11 10 -5 0
-7 -4 -4 -10z"/>
<path d="M2793 1703 c9 -2 23 -2 30 0 6 3 -1 5 -18 5 -16 0 -22 -2 -12 -5z"/>
<path d="M2858 1693 c6 -2 18 -2 25 0 6 3 1 5 -13 5 -14 0 -19 -2 -12 -5z"/>
<path d="M2945 1679 c22 -4 58 -8 80 -7 l40 1 -45 8 c-25 4 -61 7 -80 7 l-35
0 40 -9z"/>
<path d="M4118 1683 c6 -2 18 -2 25 0 6 3 1 5 -13 5 -14 0 -19 -2 -12 -5z"/>
<path d="M4058 1673 c7 -3 16 -2 19 1 4 3 -2 6 -13 5 -11 0 -14 -3 -6 -6z"/>
<path d="M3070 1667 c5 -5 125 -24 305 -48 39 -5 93 -13 122 -18 38 -6 79 -3
150 10 70 13 80 16 33 11 -103 -11 -183 -7 -358 16 -250 34 -257 35 -252 29z"/>
<path d="M2285 1650 c-3 -5 -1 -10 4 -10 6 0 11 5 11 10 0 6 -2 10 -4 10 -3 0
-8 -4 -11 -10z"/>
<path d="M3758 1633 c6 -2 18 -2 25 0 6 3 1 5 -13 5 -14 0 -19 -2 -12 -5z"/>
<path d="M3378 1543 c6 -2 18 -2 25 0 6 3 1 5 -13 5 -14 0 -19 -2 -12 -5z"/>
<path d="M3583 1543 c9 -2 23 -2 30 0 6 3 -1 5 -18 5 -16 0 -22 -2 -12 -5z"/>
<path d="M3435 1530 c11 -5 34 -8 50 -8 l30 0 -30 8 c-16 4 -39 8 -50 8 l-20
1 20 -9z"/>
<path d="M3528 1533 c6 -2 18 -2 25 0 6 3 1 5 -13 5 -14 0 -19 -2 -12 -5z"/>
<path d="M5378 4063 c7 -3 16 -2 19 1 4 3 -2 6 -13 5 -11 0 -14 -3 -6 -6z"/>
<path d="M5513 4043 c9 -2 23 -2 30 0 6 3 -1 5 -18 5 -16 0 -22 -2 -12 -5z"/>
<path d="M5263 4033 c-18 -2 -33 -8 -33 -14 0 -12 26 -12 67 0 20 6 35 6 38 0
4 -5 12 -9 18 -8 9 0 8 2 -1 6 -6 2 -10 9 -6 14 5 9 -21 10 -83 2z"/>
<path d="M5573 4033 c9 -2 23 -2 30 0 6 3 -1 5 -18 5 -16 0 -22 -2 -12 -5z"/>
<path d="M5310 4000 c0 -5 10 -10 23 -10 18 0 19 2 7 10 -19 13 -30 13 -30 0z"/>
<path d="M5790 4006 c0 -2 11 -6 25 -8 13 -3 22 -1 19 3 -5 9 -44 13 -44 5z"/>
<path d="M5835 3970 c-3 -5 -1 -10 4 -10 6 0 11 5 11 10 0 6 -2 10 -4 10 -3 0
-8 -4 -11 -10z"/>
<path d="M5605 3949 c-4 -6 -5 -12 -2 -15 2 -3 7 2 10 11 7 17 1 20 -8 4z"/>
<path d="M5330 3890 c0 -5 5 -10 11 -10 5 0 7 5 4 10 -3 6 -8 10 -11 10 -2 0
-4 -4 -4 -10z"/>
<path d="M5460 3540 c0 -5 5 -10 10 -10 6 0 10 5 10 10 0 6 -4 10 -10 10 -5 0
-10 -4 -10 -10z"/>
<path d="M5607 3023 c-4 -3 -7 -15 -7 -26 0 -16 3 -17 15 -7 8 7 15 19 15 26
0 15 -12 19 -23 7z"/>
<path d="M5770 3015 c0 -8 2 -15 4 -15 2 0 6 7 10 15 3 8 1 15 -4 15 -6 0 -10
-7 -10 -15z"/>
<path d="M5541 3015 c0 -5 3 -18 7 -27 6 -15 9 -14 19 7 6 14 7 25 2 25 -5 0
-9 -6 -9 -12 0 -9 -4 -8 -10 2 -5 8 -9 11 -9 5z"/>
<path d="M5644 3006 c-8 -22 3 -33 18 -18 9 9 9 15 0 24 -9 9 -13 7 -18 -6z"/>
<path d="M5703 3013 c-28 -5 -30 -19 -3 -19 11 0 20 4 20 9 0 5 8 3 17 -4 9
-8 14 -9 10 -2 -4 6 -1 14 5 16 15 6 -18 6 -49 0z"/>
<path d="M5541 2933 l-43 -4 6 -212 c5 -177 3 -217 -9 -241 -9 -16 -15 -55
-15 -91 0 -61 1 -64 30 -77 21 -9 28 -18 24 -30 -4 -12 0 -18 11 -18 9 0 15 6
14 13 -3 24 1 38 10 32 6 -3 10 76 11 197 3 319 4 363 15 370 6 4 0 8 -12 8
-16 0 -23 6 -23 20 0 23 18 28 105 33 57 3 56 3 -10 3 -38 0 -90 -1 -114 -3z
m19 -483 c0 -6 -7 -13 -15 -16 -9 -4 -15 -19 -15 -40 0 -27 -4 -34 -20 -34
-16 0 -20 7 -20 34 0 27 5 36 23 42 21 7 21 7 2 15 -16 6 -14 8 13 8 17 1 32
-4 32 -9z"/>
<path d="M5768 2893 l-78 -4 0 -106 0 -105 35 6 35 7 0 -62 c0 -75 12 -72 14
3 l1 53 49 3 48 3 -4 49 c-3 27 -2 47 2 45 4 -2 5 18 2 46 -3 37 -1 54 9 60
10 6 7 8 -11 7 -14 -1 -60 -4 -102 -5z m12 -83 c0 -5 -4 -10 -10 -10 -5 0 -10
5 -10 10 0 6 5 10 10 10 6 0 10 -4 10 -10z"/>
<path d="M5661 2744 c0 -11 3 -14 6 -6 3 7 2 16 -1 19 -3 4 -6 -2 -5 -13z"/>
<path d="M5874 2595 c0 -49 1 -71 3 -48 2 23 2 64 0 90 -2 26 -3 8 -3 -42z"/>
<path d="M5753 2549 c-7 -7 -13 -20 -12 -28 0 -11 3 -10 9 4 6 14 9 2 9 -42 1
-34 4 -68 7 -77 4 -11 0 -16 -15 -16 -24 0 -34 28 -28 78 4 26 1 32 -14 32
-16 0 -19 -8 -19 -43 0 -63 22 -80 104 -78 l65 1 4 -52 c2 -29 3 -10 3 42 1
52 -1 78 -3 58 -4 -33 -8 -38 -29 -38 -23 0 -24 3 -24 55 0 42 -3 55 -15 55
-8 0 -15 -7 -15 -15 0 -8 4 -15 9 -15 5 0 4 -11 -2 -25 -11 -22 -13 -17 -17
46 -4 56 -7 68 -17 58z"/>
<path d="M5606 2463 c-13 -81 -12 -83 47 -81 35 1 42 2 20 5 -33 4 -33 5 -33
59 0 65 -24 77 -34 17z"/>
<path d="M5796 2355 c4 -11 7 -31 7 -44 -1 -16 2 -20 7 -11 6 9 10 7 15 -9 4
-13 9 -20 12 -18 2 3 -7 27 -22 54 -14 26 -23 39 -19 28z"/>
<path d="M5591 2319 c1 -19 5 -45 9 -59 6 -16 7 -6 3 30 -7 63 -13 80 -12 29z"/>
<path d="M5980 2260 c0 -5 7 -10 15 -10 8 0 15 5 15 10 0 6 -7 10 -15 10 -8 0
-15 -4 -15 -10z"/>
<path d="M5980 2213 c0 -25 10 -29 28 -11 18 18 14 37 -8 35 -14 -1 -20 -8
-20 -24z"/>
<path d="M6860 3569 c0 -5 -4 -8 -9 -4 -5 3 -12 1 -15 -4 -8 -13 22 -7 36 7 9
9 9 12 0 12 -7 0 -12 -5 -12 -11z"/>
<path d="M6611 3544 c0 -11 3 -14 6 -6 3 7 2 16 -1 19 -3 4 -6 -2 -5 -13z"/>
<path d="M6612 3445 c0 -16 2 -22 5 -12 2 9 2 23 0 30 -3 6 -5 -1 -5 -18z"/>
<path d="M6750 3003 c0 -14 2 -15 9 -5 6 10 10 10 21 -3 8 -9 17 -12 24 -6 6
4 19 7 29 6 9 -2 17 1 17 6 0 5 -11 9 -25 9 -14 0 -25 -5 -25 -12 0 -6 -7 -4
-18 5 -24 22 -32 21 -32 0z"/>
<path d="M6871 3003 c0 -11 3 -13 6 -5 2 6 9 10 13 7 5 -3 11 -1 15 5 3 5 -3
10 -14 10 -14 0 -21 -6 -20 -17z"/>
<path d="M6696 2997 c3 -10 9 -15 12 -12 3 3 0 11 -7 18 -10 9 -11 8 -5 -6z"/>
<path d="M6848 2953 c7 -3 16 -2 19 1 4 3 -2 6 -13 5 -11 0 -14 -3 -6 -6z"/>
<path d="M6888 2953 c6 -2 18 -2 25 0 6 3 1 5 -13 5 -14 0 -19 -2 -12 -5z"/>
<path d="M6861 2913 c-59 -4 -63 -5 -57 -26 3 -12 6 -50 6 -84 l0 -63 39 0
c36 0 40 -3 44 -27 l4 -28 2 28 c1 25 4 27 44 28 23 1 47 1 54 0 8 -1 13 27
15 89 l3 90 -45 -2 c-25 -1 -74 -3 -109 -5z"/>
<path d="M6553 2715 c0 -22 2 -30 4 -17 2 12 2 30 0 40 -3 9 -5 -1 -4 -23z"/>
<path d="M6880 2621 c0 -24 -4 -31 -20 -31 -17 0 -20 -7 -20 -50 0 -27 5 -50
10 -50 6 0 10 -10 11 -22 l0 -23 9 23 c8 19 17 22 64 22 49 0 55 -2 59 -22 2
-13 4 20 4 72 -1 73 -2 79 -4 28 -3 -51 -8 -68 -18 -68 -11 0 -15 12 -15 45 0
36 -3 45 -18 45 -14 0 -17 -7 -14 -45 4 -43 3 -45 -22 -45 -24 0 -26 3 -26 44
0 25 5 48 10 51 6 3 10 15 10 25 0 10 -4 22 -10 25 -6 4 -10 -7 -10 -24z"/>
<path d="M6830 2631 c0 -5 9 -7 20 -4 11 3 20 7 20 9 0 2 -9 4 -20 4 -11 0
-20 -4 -20 -9z"/>
<path d="M6760 2545 c0 -25 0 -48 0 -52 0 -11 48 -11 63 -1 8 6 5 8 -8 6 -17
-3 -20 4 -23 45 -2 33 -7 47 -18 47 -10 0 -14 -12 -14 -45z"/>
<path d="M6922 2445 c0 -16 2 -22 5 -12 2 9 2 23 0 30 -3 6 -5 -1 -5 -18z"/>
<path d="M6982 2410 c0 -19 2 -27 5 -17 2 9 2 25 0 35 -3 9 -5 1 -5 -18z"/>
<path d="M7626 3483 c-6 -14 -5 -15 5 -6 7 7 10 15 7 18 -3 3 -9 -2 -12 -12z"/>
<path d="M7550 3015 c0 -8 6 -12 14 -9 8 3 17 0 21 -5 7 -13 25 -5 25 11 0 5
-7 8 -15 5 -8 -4 -17 -2 -20 3 -9 15 -25 12 -25 -5z"/>
<path d="M7507 3003 c3 -7 6 -13 8 -13 2 0 5 6 8 13 3 8 -1 14 -8 14 -7 0 -11
-6 -8 -14z"/>
<path d="M7620 3012 c0 -5 7 -9 15 -9 8 0 15 4 15 9 0 4 -7 8 -15 8 -8 0 -15
-4 -15 -8z"/>
<path d="M7383 2630 c-12 -28 -8 -39 8 -23 6 6 9 19 6 29 -3 17 -5 16 -14 -6z"/>
<path d="M3591 3044 c0 -11 3 -14 6 -6 3 7 2 16 -1 19 -3 4 -6 -2 -5 -13z"/>
<path d="M7692 2933 l-93 -4 3 -75 3 -75 50 5 c28 3 68 5 91 5 l41 1 2 58 c1
31 4 65 7 75 3 9 2 16 -3 15 -4 -1 -50 -4 -101 -5z"/>
<path d="M7570 2635 c0 -8 7 -15 15 -15 8 0 15 7 15 15 0 8 -7 15 -15 15 -8 0
-15 -7 -15 -15z"/>
<path d="M8240 2633 c0 -8 -14 -11 -45 -8 l-45 3 0 -34 c0 -19 5 -34 11 -34 7
0 9 -11 5 -27 -3 -16 -3 -23 0 -16 3 7 11 10 18 7 7 -3 18 5 24 18 7 15 11 18
12 8 1 -10 4 -9 10 5 8 19 9 19 9 -2 1 -12 -6 -23 -16 -26 -14 -4 -13 -5 3 -6
19 -1 23 5 26 47 3 26 1 54 -3 62 -5 9 -9 10 -9 3z m-59 -46 c-10 -9 -11 -8
-5 6 3 10 9 15 12 12 3 -3 0 -11 -7 -18z"/>
<path d="M6325 2441 c-4 -13 -4 -25 -1 -28 3 -4 6 -1 6 6 0 7 6 11 14 8 8 -3
17 1 20 9 9 24 7 31 -4 14 -8 -13 -11 -13 -19 -1 -7 11 -10 9 -16 -8z"/>
<path d="M6341 2294 c0 -11 3 -14 6 -6 3 7 2 16 -1 19 -3 4 -6 -2 -5 -13z"/>
<path d="M6110 2290 c0 -5 5 -10 10 -10 6 0 10 5 10 10 0 6 -4 10 -10 10 -5 0
-10 -4 -10 -10z"/>
<path d="M6305 2290 c3 -5 8 -10 11 -10 2 0 4 5 4 10 0 6 -5 10 -11 10 -5 0
-7 -4 -4 -10z"/>
<path d="M6365 2290 c3 -5 8 -10 11 -10 2 0 4 5 4 10 0 6 -5 10 -11 10 -5 0
-7 -4 -4 -10z"/>
<path d="M6395 2290 c3 -5 8 -10 11 -10 2 0 4 5 4 10 0 6 -5 10 -11 10 -5 0
-7 -4 -4 -10z"/>
<path d="M4584 2067 c-6 -7 -13 -22 -16 -35 -5 -19 -2 -22 23 -22 23 0 29 5
29 21 0 11 4 18 10 14 5 -3 7 -12 3 -20 -3 -9 1 -15 11 -15 20 0 21 24 1 43
-11 12 -12 17 -2 20 7 3 5 6 -5 6 -10 1 -18 -3 -18 -7 0 -5 -7 -17 -16 -28
-15 -18 -15 -18 -9 9 6 30 5 32 -11 14z"/>
<path d="M4675 2070 c-3 -5 -1 -10 4 -10 6 0 11 5 11 10 0 6 -2 10 -4 10 -3 0
-8 -4 -11 -10z"/>
<path d="M4150 1939 c0 -5 5 -7 10 -4 6 3 10 8 10 11 0 2 -4 4 -10 4 -5 0 -10
-5 -10 -11z"/>
</g>
</svg>
