<?xml version="1.0" encoding="UTF-8"?><svg xmlns="http://www.w3.org/2000/svg" xmlns:xlink="http://www.w3.org/1999/xlink" contentScriptType="text/ecmascript" width="375" zoomAndPan="magnify" contentStyleType="text/css" viewBox="0 0 375 374.999991" height="374.999991" preserveAspectRatio="xMidYMid meet" version="1.0"><defs><clipPath id="clip-0"><path d="M 112.5 112.5 L 262.5 112.5 L 262.5 262.5 L 112.5 262.5 Z M 112.5 112.5 " clip-rule="nonzero"/></clipPath></defs><g clip-path="url(#clip-0)"><path fill="rgb(0%, 80.778503%, 96.469116%)" d="M 261.539062 114.390625 C 260.851562 113.21875 259.621094 112.5 258.269531 112.5 L 219.988281 112.5 C 218.640625 112.5 217.410156 113.191406 216.75 114.359375 L 187.289062 164.488281 L 158.25 114.300781 C 157.558594 113.128906 156.328125 112.5 155.011719 112.5 L 116.699219 112.5 C 115.320312 112.5 114.089844 113.128906 113.429688 114.328125 C 112.738281 115.46875 112.800781 116.910156 113.488281 118.078125 L 152.941406 186 C 146.101562 194.101562 141.898438 204.570312 141.898438 216 C 141.898438 241.648438 162.75 262.53125 188.398438 262.53125 C 214.050781 262.53125 234.898438 241.679688 234.898438 216.058594 C 234.898438 203.910156 230.191406 192.898438 222.539062 184.558594 L 261.511719 118.199219 C 262.230469 117.03125 262.230469 115.558594 261.539062 114.390625 Z M 152.851562 119.941406 L 181.769531 170.011719 C 172.949219 171.269531 164.910156 175.050781 158.429688 180.539062 L 123.300781 119.941406 Z M 227.339844 215.96875 C 227.339844 237.449219 209.878906 254.941406 188.371094 254.941406 C 166.859375 254.941406 149.398438 237.480469 149.398438 215.96875 C 149.398438 207.359375 152.191406 199.410156 156.929688 192.960938 C 157.140625 192.691406 157.320312 192.421875 157.53125 192.148438 C 158.96875 190.289062 160.53125 188.609375 162.269531 187.019531 L 162.238281 186.988281 C 162.238281 186.988281 162.238281 186.988281 162.269531 186.960938 C 168.601562 181.230469 176.820312 177.511719 185.851562 176.910156 L 188.609375 176.910156 C 197.851562 176.910156 206.308594 180.300781 212.96875 185.761719 L 212.96875 185.789062 C 214.980469 187.441406 216.839844 189.269531 218.488281 191.308594 C 224.039062 198.03125 227.339844 206.640625 227.339844 215.96875 Z M 216.898438 179.339844 C 210.148438 174.089844 201.929688 170.699219 192.960938 169.800781 L 222.121094 120.238281 L 251.640625 120.238281 Z M 216.898438 179.339844 " fill-opacity="1" fill-rule="nonzero"/></g><path fill="rgb(0%, 80.778503%, 96.469116%)" d="M 188.371094 191.160156 C 174.691406 191.160156 163.53125 202.289062 163.53125 216 C 163.53125 229.710938 174.660156 240.839844 188.371094 240.839844 C 202.078125 240.839844 213.210938 229.710938 213.210938 216 C 213.238281 202.289062 202.078125 191.160156 188.371094 191.160156 Z M 188.371094 233.28125 C 178.828125 233.28125 171.089844 225.539062 171.089844 216 C 171.089844 206.460938 178.828125 198.71875 188.371094 198.71875 C 197.910156 198.71875 205.648438 206.460938 205.648438 216 C 205.679688 225.539062 197.910156 233.28125 188.371094 233.28125 Z M 188.371094 233.28125 " fill-opacity="1" fill-rule="nonzero"/></svg>